<mxfile host="65bd71144e">
    <diagram id="LxBEvGNgqzR9JjEd5Opd" name="Page-1">
        <mxGraphModel dx="1883" dy="1644" grid="1" gridSize="10" guides="1" tooltips="1" connect="1" arrows="1" fold="1" page="1" pageScale="1" pageWidth="1100" pageHeight="850" math="0" shadow="0">
            <root>
                <mxCell id="0"/>
                <mxCell id="1" parent="0"/>
                <mxCell id="11" value="" style="rounded=0;whiteSpace=wrap;html=1;fillColor=none;" vertex="1" parent="1">
                    <mxGeometry x="250" y="110" width="630" height="450" as="geometry"/>
                </mxCell>
                <mxCell id="7" style="edgeStyle=none;html=1;exitX=1;exitY=0.5;exitDx=0;exitDy=0;exitPerimeter=0;entryX=0;entryY=0.5;entryDx=0;entryDy=0;entryPerimeter=0;" edge="1" parent="1" source="2" target="3">
                    <mxGeometry relative="1" as="geometry">
                        <Array as="points">
                            <mxPoint x="440" y="335"/>
                            <mxPoint x="440" y="235"/>
                        </Array>
                    </mxGeometry>
                </mxCell>
                <mxCell id="8" style="edgeStyle=none;html=1;exitX=1;exitY=0.5;exitDx=0;exitDy=0;exitPerimeter=0;entryX=0;entryY=0.5;entryDx=0;entryDy=0;entryPerimeter=0;" edge="1" parent="1" source="2" target="4">
                    <mxGeometry relative="1" as="geometry"/>
                </mxCell>
                <mxCell id="9" style="edgeStyle=none;html=1;exitX=1;exitY=0.5;exitDx=0;exitDy=0;exitPerimeter=0;entryX=0;entryY=0.5;entryDx=0;entryDy=0;entryPerimeter=0;" edge="1" parent="1" source="2" target="5">
                    <mxGeometry relative="1" as="geometry">
                        <Array as="points">
                            <mxPoint x="440" y="335"/>
                            <mxPoint x="440" y="465"/>
                        </Array>
                    </mxGeometry>
                </mxCell>
                <mxCell id="2" value="" style="sketch=0;points=[[0,0,0],[0.25,0,0],[0.5,0,0],[0.75,0,0],[1,0,0],[0,1,0],[0.25,1,0],[0.5,1,0],[0.75,1,0],[1,1,0],[0,0.25,0],[0,0.5,0],[0,0.75,0],[1,0.25,0],[1,0.5,0],[1,0.75,0]];outlineConnect=0;fontColor=#232F3E;gradientColor=#945DF2;gradientDirection=north;fillColor=#5A30B5;strokeColor=#ffffff;dashed=0;verticalLabelPosition=bottom;verticalAlign=top;align=center;html=1;fontSize=12;fontStyle=0;aspect=fixed;shape=mxgraph.aws4.resourceIcon;resIcon=mxgraph.aws4.api_gateway;" vertex="1" parent="1">
                    <mxGeometry x="320" y="310" width="50" height="50" as="geometry"/>
                </mxCell>
                <mxCell id="12" style="edgeStyle=none;html=1;exitX=1;exitY=0.5;exitDx=0;exitDy=0;exitPerimeter=0;entryX=0.5;entryY=0;entryDx=0;entryDy=0;entryPerimeter=0;" edge="1" parent="1" source="3" target="6">
                    <mxGeometry relative="1" as="geometry">
                        <Array as="points">
                            <mxPoint x="765" y="235"/>
                        </Array>
                    </mxGeometry>
                </mxCell>
                <mxCell id="3" value="" style="outlineConnect=0;dashed=0;verticalLabelPosition=bottom;verticalAlign=top;align=center;html=1;shape=mxgraph.aws3.lambda_function;fillColor=#F58534;gradientColor=none;" vertex="1" parent="1">
                    <mxGeometry x="510" y="210" width="50" height="50" as="geometry"/>
                </mxCell>
                <mxCell id="13" style="edgeStyle=none;html=1;exitX=1;exitY=0.5;exitDx=0;exitDy=0;exitPerimeter=0;entryX=0;entryY=0.5;entryDx=0;entryDy=0;entryPerimeter=0;" edge="1" parent="1" source="4" target="6">
                    <mxGeometry relative="1" as="geometry"/>
                </mxCell>
                <mxCell id="4" value="" style="outlineConnect=0;dashed=0;verticalLabelPosition=bottom;verticalAlign=top;align=center;html=1;shape=mxgraph.aws3.lambda_function;fillColor=#F58534;gradientColor=none;" vertex="1" parent="1">
                    <mxGeometry x="510" y="310" width="50" height="50" as="geometry"/>
                </mxCell>
                <mxCell id="14" style="edgeStyle=none;html=1;exitX=1;exitY=0.5;exitDx=0;exitDy=0;exitPerimeter=0;entryX=0.5;entryY=1;entryDx=0;entryDy=0;entryPerimeter=0;" edge="1" parent="1" source="5" target="6">
                    <mxGeometry relative="1" as="geometry">
                        <Array as="points">
                            <mxPoint x="765" y="465"/>
                        </Array>
                    </mxGeometry>
                </mxCell>
                <mxCell id="5" value="" style="outlineConnect=0;dashed=0;verticalLabelPosition=bottom;verticalAlign=top;align=center;html=1;shape=mxgraph.aws3.lambda_function;fillColor=#F58534;gradientColor=none;" vertex="1" parent="1">
                    <mxGeometry x="510" y="440" width="50" height="50" as="geometry"/>
                </mxCell>
                <mxCell id="6" value="" style="sketch=0;points=[[0,0,0],[0.25,0,0],[0.5,0,0],[0.75,0,0],[1,0,0],[0,1,0],[0.25,1,0],[0.5,1,0],[0.75,1,0],[1,1,0],[0,0.25,0],[0,0.5,0],[0,0.75,0],[1,0.25,0],[1,0.5,0],[1,0.75,0]];outlineConnect=0;fontColor=#232F3E;gradientColor=#4D72F3;gradientDirection=north;fillColor=#3334B9;strokeColor=#ffffff;dashed=0;verticalLabelPosition=bottom;verticalAlign=top;align=center;html=1;fontSize=12;fontStyle=0;aspect=fixed;shape=mxgraph.aws4.resourceIcon;resIcon=mxgraph.aws4.dynamodb;" vertex="1" parent="1">
                    <mxGeometry x="740" y="310" width="50" height="50" as="geometry"/>
                </mxCell>
                <mxCell id="10" value="" style="shape=image;verticalLabelPosition=bottom;labelBackgroundColor=default;verticalAlign=top;aspect=fixed;imageAspect=0;image=data:image/png,iVBORw0KGgoAAAANSUhEUgAABJEAAAOjCAYAAAALW5WaAAABXWlDQ1BJQ0MgUHJvZmlsZQAAKJF1kD1LQmEUx3+WYYRUQ0NQg0M0WUg6NOZLiGAgpvSyXW+mgS+X641qkYbahVqiJWzpE9RS1CeoIGiIiGjpA0guJbdztbIXOnD4/54/5xzOc6DDqWhazg7kC4YeDwdc8wuLLsczdmxiOulV1JLmj8Wi8uJTf0b9tlnLzZg166y7NlQOrfN0Xr7cT81M/a3/ET1L6ZIq+ibpUzXdAJtHOLZmaBZvCg/ospTwrsWZFh9ZnGrxabMmEQ8KXwv3q1llSfhR2J365me+cT63qn7s0PxpupCcFR2UHCZKGBdJ0QRx/MwRIcT0Pz2+Zk+QIhob6KyQIYshE/ziaORIC0cooDKOW3gCj6TXuvXvG7a9YhUmX6Cz0vZSe3CyLWvetb2RA+jbguMrTdGVr8va6vbSsneixc4AdD2YZm0UHDvQqJjma9U0G4cy/x4uCu/py2R16P9XOwAAAFZlWElmTU0AKgAAAAgAAYdpAAQAAAABAAAAGgAAAAAAA5KGAAcAAAASAAAARKACAAQAAAABAAAEkaADAAQAAAABAAADowAAAABBU0NJSQAAAFNjcmVlbnNob3T0fh+EAAAB12lUWHRYTUw6Y29tLmFkb2JlLnhtcAAAAAAAPHg6eG1wbWV0YSB4bWxuczp4PSJhZG9iZTpuczptZXRhLyIgeDp4bXB0az0iWE1QIENvcmUgNi4wLjAiPgogICA8cmRmOlJERiB4bWxuczpyZGY9Imh0dHA6Ly93d3cudzMub3JnLzE5OTkvMDIvMjItcmRmLXN5bnRheC1ucyMiPgogICAgICA8cmRmOkRlc2NyaXB0aW9uIHJkZjphYm91dD0iIgogICAgICAgICAgICB4bWxuczpleGlmPSJodHRwOi8vbnMuYWRvYmUuY29tL2V4aWYvMS4wLyI+CiAgICAgICAgIDxleGlmOlBpeGVsWURpbWVuc2lvbj45MzE8L2V4aWY6UGl4ZWxZRGltZW5zaW9uPgogICAgICAgICA8ZXhpZjpQaXhlbFhEaW1lbnNpb24+MTE2OTwvZXhpZjpQaXhlbFhEaW1lbnNpb24+CiAgICAgICAgIDxleGlmOlVzZXJDb21tZW50PlNjcmVlbnNob3Q8L2V4aWY6VXNlckNvbW1lbnQ+CiAgICAgIDwvcmRmOkRlc2NyaXB0aW9uPgogICA8L3JkZjpSREY+CjwveDp4bXBtZXRhPgp6hgw+AABAAElEQVR4Aezd2bptVXUv8D4UERERFalEStEQAha7kBos2ZIn8CLvcm7OQ5xc5CYXeQLI3kghUu9CFNBYBEVEEUUQBEQRx5lro8Bea9azzzX6bO23vy/JmqPoo7dfm98X889qa3T96F/xjwABAgQIECBAgAABAgQIECBAgMAUgfdMOecUAQIECBAgQIAAAQIECBAgQIAAgeMCQiRfBAIECBAgQIAAAQIECBAgQIAAgZkCQqSZRC4gQIAAAQIECBAgQIAAAQIECBAQIvkOECBAgAABAgQIECBAgAABAgQIzBQQIs0kcgEBAgQIECBAgAABAgQIECBAgIAQyXeAAAECBAgQIECAAAECBAgQIEBgpoAQaSaRCwgQIECAAAECBAgQIECAAAECBIRIvgMECBAgQIAAAQIECBAgQIAAAQIzBYRIM4lcQIAAAQIECBAgQIAAAQIECBAgIETyHSBAgAABAgQIECBAgAABAgQIEJgpIESaSeQCAgQIECBAgAABAgQIECBAgAABIZLvAAECBAgQIECAAAECBAgQIECAwEwBIdJMIhcQIECAAAECBAgQIECAAAECBAgIkXwHCBAgQIAAAQIECBAgQIAAAQIEZgoIkWYSuYAAAQIECBAgQIAAAQIECBAgQECI5DtAgAABAgQIECBAgAABAgQIECAwU+CkmVdMuaB//LEpZ50iQIAAAQKbK9BdedXmbt7OCaxJwH/2WxOsZQkQIECAwEACi/5n3pVCpPLEY6X/r/8cqFSPJUCAAAECaxD40OnlPf/vP9awsCUJbL5A/x//XsqTP938QlRAgAABAgQIlO6b/1bKgv+PU+NsvjgECBAgQOBdAt2efaWc9qF3HfEjAQLHBf72NwGSrwIBAgQIEEguIERK/gVQPgECBAhsE9gKkfwjQGCHQH/o9h3HHCBAgAABAgRyCQiRcvVbtQQIECAwTeD0D5durxBpGpFzeQX6g0KkvN1XOQECBAgQeEtAiOSbQIAAAQIE/i5wfJTtg6fxIEBgu8Bf/1rKz5/cftRnAgQIECBAIJmAEClZw5VLgAABAlMEjLJNwXEqs4DfQsrcfbUTIECAAIF3BIRI71j4iQABAgQyC3z4DKNsmfuv9qkC/aHbpp53kgABAgQIEMghIETK0WdVEiBAgMAMgeOjbKd+cMZVThNIKPCXv5Tyi6cSFq5kAgQIECBAYLuAEGm7iM8ECBAgkFPAKFvOvqt6pkB/0G8hzURyAQECBAgQSCIgRErSaGUSIECAwBSBMz5ilG0Kj1O5Bfw9pNz9Vz0BAgQIEHi3gBDp3Rp+JkCAAIGUAsdH2T5wasraFU1gqsCf/lTKM09PvcRJAgQIECBAII+AEClPr1VKgAABApMEjLJNknE8uUB/6PbkAsonQIAAAQIE3i0gRHq3hp8JECBAIJ/ARz5qlC1f11U8p4BRtjmhXEaAAAECBJIICJGSNFqZBAgQIDBe4Pgo2ykfGH/SUQKZBV59tZRfP5NZQO0ECBAgQIDANgEh0jYQHwkQIEAgmYBRtmQNV+68AkbZ5pVyHQECBAgQyCMgRMrTa5USIECAwHaBj35sNMq2f/tRnwkQGAn0B2/jQIAAAQIECBA4QUCIdAKHDwQIECCQSeD4KNv735+pZLUSmE/gjy+X8ptn57vWVQQIECBAgEAaASFSmlYrlAABAgR2CBhl20HiAIEtAX9Q2/eAAAECBAgQGCcgRBqn4hgBAgQIxBf42JlG2eJ3WYVLCvh7SEvCuY0AAQIECAQXECIFb7DyCBAgQGC8wPFRtpNPHn/SUQKZBV76Qym/fS6zgNoJECBAgACBCQJCpAkwDhMgQIBAcAGjbMEbrLxlBYyyLSvnPgIECBAgEF9AiBS/xyokQIAAge0CZ37cKNt2E58J/F3AKJuvAgECBAgQIDBJQIg0ScZxAgQIEAgrcHyU7X3vC1ufwggsLfDCC6U8/7ulb3cjAQIECBAgEFtAiBS7v6ojQIAAgXECRtnGqThGoPSHbqNAgAABAgQIEJgoIESaSOMEAQIECIQUMMoWsq2KqiPQ33GwzkJWIUCAAAECBEIKCJFCtlVRBAgQIDBJoNu7v5STTpp02nECeQW2xth+/3ze+lVOgAABAgQIzBQQIs0kcgEBAgQIhBLYCpH8I0Bgh4C3su0gcYAAAQIECBDYJiBE2gbiIwECBAgEFjjzrHL8j2oHLlFpBJYV6O88tOyt7iNAgAABAgSSCAiRkjRamQQIECBQSrdv9FtI730vCgIEtgv89rlSXvj99qM+EyBAgAABAgROEBAincDhAwECBAiEFthjlC10fxW3tIBRtqXp3EiAAAECBFIJCJFStVuxBAgQSCzw8dEo2959iQGUTmCyQH/XHZNPOkOAAAECBAgQ+LuAEMlXgQABAgRSCHT7ri7lPf7XXopmK3Ixgd88W8qLLyx2j6sJECBAgACBlAL+03TKtiuaAAECCQX8FlLCpit5HgGjbPMouYYAAQIECBDYEhAi+R4QIECAQHyBrVG2PUbZ4jdahcsI9Hd/a5nb3EOAAAECBAgkFBAiJWy6kgkQIJBNoNt/zejVbF22stVLYLbAr54p5Q8vzr7OFQQIECBAgACBkYAQydeAAAECBOILGGWL32MVLiXQH7p9qfvcRIAAAQIECOQUECLl7LuqCRAgkEfAKFueXqt0YYH+nrsXvscNBAgQIECAQF4BIVLe3qucAAECKQS6L16bok5FElhY4JdPl/KSUbaF3dxAgAABAgQSCwiREjdf6QQIEEghYJQtRZsVubiAt7ItbuYOAgQIECCQXUCIlP0boH4CBAhEFvj42aX7wt7IFaqNwNIC/XfuWfpeNxIgQIAAAQI5BYRIOfuuagIECKQQ6K42ypai0YpcXOAXT41G2f6w+H3uIECAAAECBFILCJFSt1/xBAgQCC5glC14g5W3rEB/8LZlb3UfAQIECBAgkFhAiJS4+UonQIBAaIGzRqNsn98TukTFEVhWoL/v3mVvdR8BAgQIECCQWECIlLj5SidAgEBkge7q6yKXpzYCywv8/MlSXn5p+fvdSYAAAQIECKQVECKlbb3CCRAgEFzAKFvwBitvWQFvZVtWzn0ECBAgQICAEMl3gAABAgTiCWyNsn3uC/HqUhGBCgL9/d+psIolCBAgQIAAgYwCQqSMXVczAQIEggt011wfvELlEVhS4H9/WsofX17yZrcRIECAAAEC2QWESNm/AeonQIBAQIHOKFvAriqphkB/6PYay1iDAAECBAgQSCogREraeGUTIEAgrMBZ55Ty2c+HLU9hBFYR6B+4b5Xb3UuAAAECBAgkFxAiJf8CKJ8AAQLRBLprjbJF66l6Kgn85MelvPLHSotZhgABAgQIEMgoIETK2HU1EyBAILKAUbbI3VXbCgL9wdtWuNutBAgQIECAAIFShEi+BQQIECAQR+Dsc0p31efi1KMSAhUF+oceqLiapQgQIECAAIGMAkKkjF1XMwECBIIKdNfeELQyZRFYTaD/0Q9LefWV1RZxNwECBAgQIJBeQIiU/isAgAABAoEEjLIFaqZSqgoc9Fa2qp4WI0CAAAECSQWESEkbr2wCBAiEE9gaZbvys+HKUhCBGgL9ww/WWMYaBAgQIECAQHIBIVLyL4DyCRAgEEWgu+7GKKWog0BVgf4HT5Ty2qtV17QYAQIECBAgkFNAiJSz76omQIBAOIHOKFu4niqoksAho2yVJC1DgAABAgTSCwiR0n8FABAgQCCAwNnnlvIvVwUoRAkE6gv0hx+uv6gVCRAgQIAAgZQCQqSUbVc0AQIEYgl01xtli9VR1dQS6B9/zChbLUzrECBAgAABAkWI5EtAgAABApsvYJRt83uogvUIHLxtPetalQABAgQIEEgpIERK2XZFEyBAIJDAaJStu+LKQAUphUA9gf7o4XqLWYkAAQIECBBILyBESv8VAECAAIHNFuhuuGmzC7B7AmsS6L//aCl/em1Nq1uWAAECBAgQyCggRMrYdTUTIEAgkIC3sgVqplKqCvQHvZWtKqjFCBAgQIAAAX8TyXeAAAECBDZY4JzRW9n++V82uABbJ7BGgWNH1ri4pQkQIECAAIGMAn4TKWPX1UyAAIEgAt0NNwepRBkE6gr0jx4r5fU/1V3UagQIECBAgEB6ASFS+q8AAAIECGyugFG2ze2dna9XoD/03+t9gNUJECBAgACBlAJCpJRtVzQBAgQCCGyNsl1+RYBClEBgDQJG2daAakkCBAgQIEBAiOQ7QIAAAQIbKdDd+KWN3LdNE1i3QH909LeQ/vz6uh9jfQIECBAgQCChgBApYdOVTIAAgRACe/eFKEMRBGoL9HcerL2k9QgQIECAAAECxwWESL4IBAgQILB5AuecV7p/+ufN27cdE9gNga3fRPKPAAECBAgQILAGASHSGlAtSYAAAQLrFehuMsq2XmGrb6pAf/jhUv7y503dvn0TIECAAAECjQsIkRpvkO0RIECAwE4Bb2XbaeIIgeMCd90BggABAgQIECCwNgEh0tpoLUyAAAECaxE497xSPnP5Wpa2KIFNF+i9lW3TW2j/BAgQIECgaQEhUtPtsTkCBAgQ2C7Q3fTl7Yd8JkBgJNA//OBolO0vLAgQIECAAAECaxMQIq2N1sIECBAgsA4Bo2zrULVmBIH+7jsjlKEGAgQIECBAoGEBIVLDzbE1AgQIENgmsDXK9ul/2nbQRwIEjgscOwyCAAECBAgQILBWASHSWnktToAAAQI1Bbqbv1JzOWsRCCPQP3hfKW+8EaYehRAgQIAAAQJtCgiR2uyLXREgQIDAGIFu7/4xRx0iQKC/524IBAgQIECAAIG1CwiR1k7sAQQIECBQReDcT5Ry2aerLGURAuEEvJUtXEsVRIAAAQIEWhQQIrXYFXsiQIAAgR0C3ZeMsu1AcYDASKC/795S/mqUzZeBAAECBAgQWL+AEGn9xp5AgAABAhUEjLJVQLRESIH+3ntC1qUoAgQIECBAoD0BIVJ7PbEjAgQIENgusDXK9qnLth/1mQCBLQGjbL4HBAgQIECAwC4JCJF2CdpjCBAgQGB5ge4rX13+ZncSCCxw/LeQ3vxr4AqVRoAAAQIECLQkIERqqRv2QoAAAQJjBbo93so2FsbB9AL9d76d3gAAAQIECBAgsHsCQqTds/YkAgQIEFhG4LzRKNuln1rmTvcQiC9glC1+j1VIgAABAgQaEhAiNdQMWyFAgACBnQLdV76286AjBAiU/p67SvnbmyQIECBAgAABArsmIETaNWoPIkCAAIFlBIyyLaPmngwC/f33ZihTjQQIECBAgEBDAkKkhpphKwQIECCwTeC880u55NJtB30kQOC4wNEjIAgQIECAAAECuyogRNpVbg8jQIAAgUUEuq8aZVvEy7V5BPq77iil/1ueglVKgAABAgQINCEgRGqiDTZBgAABAuMEjLKNU3GMwCg/euA+DAQIECBAgACBXRcQIu06uQcSIECAwFwCW6NsF18y16UuIpBOwFvZ0rVcwQQIECBAoAUBIVILXbAHAgQIENgh0H3tlh3HHCBAYPRbSHccHP23HgUBAgQIECBAYNcFhEi7Tu6BBAgQIDCPQLdn3zyXuYZAOoH+ofvT1axgAgQIECBAoA0BIVIbfbALAgQIEHi3wCdGo2wXXfzuI34mQOAfAkbZ/iHhfxIgQIAAAQK7LCBE2mVwjyNAgACB2QLd1w7MvsgVBBIK9AdvS1i1kgkQIECAAIFWBIRIrXTCPggQIEDgbQGjbG9T+IHACQL9ww+d8NkHAgQIECBAgMBuCgiRdlPbswgQIEBgtsDWKNuFF82+zhUEsgn87c1SvnskW9XqJUCAAAECBBoSECI11AxbIUCAAIFSuq9/AwMBAmME+oO3jznqEAECBAgQIEBg9wSESLtn7UkECBAgMIeAUbY5kFySUqB/5OGUdSuaAAECBAgQaEdAiNROL+yEAAECBD7xyVIuuJADAQLbBd54o5RHj24/6jMBAgQIECBAYFcFhEi7yu1hBAgQIDBNoLvFKNs0H+fyChhly9t7lRMgQIAAgZYEhEgtdcNeCBAgkFzAKFvyL4DyJwr0Rx+ZeM4JAgQIECBAgMBuCQiRdkvacwgQIEBgusDWKNsnL5h+jbMEMgr8+c+jUbZjGStXMwECBAgQINCYgBCpsYbYDgECBLIKdAduzVq6uglMFegP3jb1vJMECBAgQIAAgd0SECLtlrTnECBAgMBUAaNsU3mcTCzQHzuSuHqlEyBAgAABAi0JCJFa6oa9ECBAIKvA+aNRtq3/8o8AgRMF/vRaKd/77onHfCJAgAABAgQIDCQgRBoI3mMJECBA4B2B7hajbO9o+InAOwL9of9+54OfCBAgQIAAAQIDCwiRBm6AxxMgQIBAKd3e/RgIEBgjYJRtDIpDBAgQIECAwGACQqTB6D2YAAECBI4LnD96I9snzodBgMB2gVdeKeX7j24/6jMBAgQIECBAYDABIdJg9B5MgAABAlsCRtl8DwiMF+i/dXD8CUcJECBAgAABAgMJCJEGgvdYAgQIEHhLoNtnlM13gcA4AaNs41QcI0CAAAECBIYUECINqe/ZBAgQyC6wNcp23ieyK6ifwE6Bl18u5bHv7TzuCAECBAgQIEBgQAEh0oD4Hk2AAIHsAt0Bb2XL/h1Q/3iB/q47xp9wlAABAgQIECAwoIAQaUB8jyZAgEB2gW7fF7MTqJ/AWIH+6OGxxx0kQIAAAQIECAwpIEQaUt+zCRAgkFngk6NRtnPPyyygdgLjBf7wYimPf3/8OUcJECBAgAABAgMKCJEGxPdoAgQIZBbwVrbM3Vf7NIH+7junnXaOAAECBAgQIDCYgBBpMHoPJkCAQG6Bbv/VuQFUT2CCQH/0yIQzDhMgQIAAAQIEhhUQIg3r7+kECBDIKfDJC0s559yctauawDSBF35fyhNG2aYROUeAAAECBAgMJyBEGs7ekwkQIJBWoLvlG2lrVziBaQL9PXdNO+0cAQIECBAgQGBQASHSoPweToAAgZwC3RevyVm4qgnMEOiPGWWbQeQ0AQIECBAgMKCAEGlAfI8mQIBASoGtUbazz0lZuqIJTBX43e9Go2yPTb3ESQIECBAgQIDAkAJCpCH1PZsAAQIJBboDtyasWskEZgv09949+yJXECBAgAABAgQGFBAiDYjv0QQIEMgoYJQtY9fVPI+AUbZ5lFxDgAABAgQIDCkgRBpS37MJECCQTeCC0SjbWWdnq1q9BGYLPPebUn7w+OzrXEGAAAECBAgQGFBAiDQgvkcTIEAgm0B3i1G2bD1X73wC/Xe+Pd+FriJAgAABAgQIDCggRBoQ36MJECCQTaC7+tpsJauXwFwCRtnmYnIRAQIECBAgMLCAEGngBng8AQIE0ghsjbJ9/Kw05SqUwNwCz/66lB8+MfflLiRAgAABAgQIDCUgRBpK3nMJECCQTMAoW7KGK3dugf6+e+e+1oUECBAgQIAAgSEFhEhD6ns2AQIEEgl011yXqFqlEphfwCjb/FauJECAAAECBIYVECIN6+/pBAgQyCFwwUWlnPnxHLWqksAiAs/8spT/+cEid7iWAAECBAgQIDCYgBBpMHoPJkCAQB4Bo2x5eq3SxQT6B+9b7AZXEyBAgAABAgQGFBAiDYjv0QQIEMgi0F1rlC1Lr9W5mEB/9MhiN7iaAAECBAgQIDCggBBpQHyPJkCAQAqBrVG2j52ZolRFElhI4OlflPKjHy50i4sJECBAgAABAkMKCJGG1PdsAgQIJBDoDtyaoEolElhcoH/ogcVvcgcBAgQIECBAYEABIdKA+B5NgACBDALdtTdkKFONBBYW8Fa2hcncQIAAAQIECAwsIEQauAEeT4AAgdACF15Uykc/GrpExRFYSuCpnxtlWwrOTQQIECBAgMCQAkKkIfU9mwABAsEFvJUteIOVt7RA//CDS9/rRgIECBAgQIDAUAJCpKHkPZcAAQIJBLrrbkxQpRIJLC5glG1xM3cQIECAAAECwwsIkYbvgR0QIEAgpsCFF5fykY/ErE1VBFYR+NmTpfz4f1ZZwb0ECBAgQIAAgUEEhEiDsHsoAQIE4gsYZYvfYxUuJ9A/8tByN7qLAAECBAgQIDCwgBBp4AZ4PAECBKIKdNcbZYvaW3WtJmCUbTU/dxMgQIAAAQLDCQiRhrP3ZAIECMQV2BplO+OMuPWpjMCyAv/7k1J+8qNl73YfAQIECBAgQGBQASHSoPweToAAgZgC3YFbYxamKgIrCvSHH1lxBbcTIECAAAECBIYTECINZ+/JBAgQCCvQXX9T2NoURmAVAaNsq+i5lwABAgQIEBhaQIg0dAc8nwABAtEELhqNsn34w9GqUg+B1QV+PBpj++mPV1/HCgQIECBAgACBgQSESAPBeywBAgSiCngrW9TOqmtVgf7o4VWXcD8BAgQIECBAYFABIdKg/B5OgACBeALdDTfHK0pFBCoIGGWrgGgJAgQIECBAYFABIdKg/B5OgACBYAIXXVLK6acHK0o5BCoI/OiHpWy9mc0/AgQIECBAgMAGCwiRNrh5tk6AAIHWBIyytdYR+2lFwG8htdIJ+yBAgAABAgRWERAiraLnXgIECBA4QaC78eYTPvtAgMBbAv3RIygIECBAgAABAhsvIETa+BYqgAABAo0IbI2yfehDjWzGNgg0JPA/o1G2J3/a0IZshQABAgQIECCwnIAQaTk3dxEgQIDANgGjbNtAfCTwd4H+mLey+TIQIECAAAECMQSESDH6qAoCBAgMLtDd9KXB92ADBFoU8PeQWuyKPREgQIAAAQLLCAiRllFzDwECBAicKLA1ynbaaSce84kAgdL/8AejUbb/JUGAAAECBAgQCCEgRArRRkUQIEBgWIHuwK3DbsDTCbQqcMwf1G61NfZFgAABAgQILC4gRFrczB0ECBAgsE2gu+nL2474SIDAloC/h+R7QIAAAQIECEQSECJF6qZaCBAgMITAxZeU8sEPDvFkzyTQtsAPnijlZ0+2vUe7I0CAAAECBAgsICBEWgDLpQQIECCwU8Bb2XaaOEJgS8Af1PY9IECAAAECBKIJCJGidVQ9BAgQ2GWB7uav7PITPY7AZggIkTajT3ZJgAABAgQIzC8gRJrfypUECBAgsF3g4ktLOfXU7Ud9JpBeoP/B46X83Chb+i8CAAIECBAgEExAiBSsocohQIDAbgoYZdtNbc/aKIGj3sq2Uf2yWQIECBAgQGAuASHSXEwuIkCAAIFxAt2XjLKNc3GMgFE23wECBAgQIEAgooAQKWJX1USAAIHdENgaZfvAB3bjSZ5BYKME+iceK+Wpn23Unm2WAAECBAgQIDCPgBBpHiXXECBAgMAOge7ArTuOOUCAwEjAKJuvAQECBAgQIBBUQIgUtLHKIkCAwLoFui99dd2PsD6BjRQwyraRbbNpAgQIECBAYA4BIdIcSC4hQIAAgW0Cl4xG2U45ZdtBHwkQKI9/v5Rf/BwEAQIECBAgQCCkgBApZFsVRYAAgfUKeCvben2tvrkCfgtpc3tn5wQIECBAgMBsASHSbCNXECBAgMA2ge7LX9t2xEcCBLYEen8PyReBAAECBAgQCCwgRArcXKURIEBgLQKXfKqU979/LUtblMAmC/SPfa+Up5/a5BLsnQABAgQIECAwVUCINJXHSQIECBDYLtDd8o3th3wmQGBL4NgRDgQIECBAgACB0AJCpNDtVRwBAgTqC3Rf+Xr9Ra1IIICAv4cUoIlKIECAAAECBKYKCJGm8jhJgAABAicIbI2ynXzyCYd8IEBg9LeQvr81yvYLFAQIECBAgACB0AJCpNDtVRwBAgTqCnQHbq27oNUIRBEwyhalk+ogQIAAAQIEpggIkabgOEWAAAECJwp0XzXKdqKITwTeEuiPHUZBgAABAgQIEAgvIEQK32IFEiBAoJLA1ijbSe+rtJhlCMQR6L/3aCm/fDpOQSohQIAAAQIECEwQECJNgHGYAAECBE4UMMp2oodPBN4WMMr2NoUfCBAgQIAAgdgCQqTY/VUdAQIEqgl0X72l2loWIhBJwChbpG6qhQABAgQIEJgmIESapuMcAQIECLwlcOllo1G2k2gQILBNoP/ed0t55pfbjvpIgAABAgQIEIgpIESK2VdVESBAoKpAd8s3qq5nMQJhBI4eCVOKQggQIECAAAECswSESLOEnCdAgACB0n39AAUCBMYI9P4e0hgVhwgQIECAAIGoAkKkqJ1VFwECBGoJbI2yvee9tVazDoEwAv2jx0r5lVG2MA1VCAECBAgQIDBTQIg0k8gFBAgQyC3Q3XJrbgDVE5gk4LeQJsk4ToAAAQIECAQVECIFbayyCBAgUEvA30OqJWmdaAK9v4cUraXqIUCAAAECBGYICJFmADlNgACB1AJbo2xdl5pA8QTGCfTfPVrKr58Zd8oxAgQIECBAgEBYASFS2NYqjAABAqsLdAeMsq2uaIWQAkbZQrZVUQQIECBAgMB0ASHSdB9nCRAgkFrA30NK3X7FTxHwVrYpOE4RIECAAAECYQVOWrWy7pv/tuoS7idAgAABAgQIbIzAVoDU3fTljdmvjRIgQIAAAQIEagl0/ehfrcWsQ4AAAQIECBAgQIAAAQIECBAgEFPAOFvMvqqKAAECBAgQIECAAAECBAgQIFBVQIhUldNiBAgQIECAAAECBAgQIECAAIGYAkKkmH1VFQECBAgQIECAAAECBAgQIECgqoAQqSqnxQgQIECAAAECBAgQIECAAAECMQWESDH7qioCBAgQIECAAAECBAgQIECAQFUBIVJVTosRIECAAAECBAgQIECAAAECBGIKCJFi9lVVBAgQIECAAAECBAgQIECAAIGqAkKkqpwWI0CAAAECBAgQIECAAAECBAjEFBAixeyrqggQIECAAAECBAgQIECAAAECVQWESFU5LUaAAAECBAgQIECAAAECBAgQiCkgRIrZV1URIECAAAECBAgQIECAAAECBKoKCJGqclqMAAECBAgQIECAAAECBAgQIBBTQIgUs6+qIkCAAAECBAgQIECAAAECBAhUFRAiVeW0GAECBAgQIECAAAECBAgQIEAgpoAQKWZfVUWAAAECBAgQIECAAAECBAgQqCogRKrKaTECBAgQIECAAAECBAgQIECAQEwBIVLMvqqKAAECBAgQIECAAAECBAgQIFBVQIhUldNiBAgQIECAAAECBAgQIECAAIGYAkKkmH1VFQECBAgQIECAAAECBAgQIECgqoAQqSqnxQgQIECAAAECBAgQIECAAAECMQWESDH7qioCBAgQIECAAAECBAgQIECAQFUBIVJVTosRIECAAAECBAgQIECAAAECBGIKCJFi9lVVBAgQIECAAAECBAgQIECAAIGqAkKkqpwWI0CAAAECBAgQIECAAAECBAjEFBAixeyrqggQIECAAAECBAgQIECAAAECVQWESFU5LUaAAAECBAgQIECAAAECBAgQiCkgRIrZV1URIECAAAECBAgQIECAAAECBKoKCJGqclqMAAECBAgQIECAAAECBAgQIBBTQIgUs6+qIkCAAAECBAgQIECAAAECBAhUFRAiVeW0GAECBAgQIECAAAECBAgQIEAgpoAQKWZfVUWAAAECBAgQIECAAAECBAgQqCogRKrKaTECBAgQIECAAAECBAgQIECAQEwBIVLMvqqKAAECBAgQIECAAAECBAgQIFBVQIhUldNiBAgQIECAAAECBAgQIECAAIGYAkKkmH1VFQECBAgQIECAAAECBAgQIECgqoAQqSqnxQgQIECAAAECBAgQIECAAAECMQWESDH7qioCBAgQIECAAAECBAgQIECAQFUBIVJVTosRIECAAAECBAgQIECAAAECBGIKCJFi9lVVBAgQIECAAAECBAgQIECAAIGqAkKkqpwWI0CAAAECBAgQIECAAAECBAjEFBAixeyrqggQIECAAAECBAgQIECAAAECVQWESFU5LUaAAAECBAgQIECAAAECBAgQiCkgRIrZV1URIECAAAECBAgQIECAAAECBKoKCJGqclqMAAECBAgQIECAAAECBAgQIBBTQIgUs6+qIkCAAAECBAgQIECAAAECBAhUFRAiVeW0GAECBAgQIECAAAECBAgQIEAgpoAQKWZfVUWAAAECBAgQIECAAAECBAgQqCogRKrKaTECBAgQIECAAAECBAgQIECAQEwBIVLMvqqKAAECBAgQIECAAAECBAgQIFBVQIhUldNiBAgQIECAAAECBAgQIECAAIGYAkKkmH1VFQECBAgQIECAAAECBAgQIECgqoAQqSqnxQgQIECAAAECBAgQIECAAAECMQWESDH7qioCBAgQIECAAAECBAgQIECAQFUBIVJVTosRIECAAAECBAgQIECAAAECBGIKCJFi9lVVBAgQIECAAAECBAgQIECAAIGqAkKkqpwWI0CAAAECBAgQIECAAAECBAjEFBAixeyrqggQIECAAAECBAgQIECAAAECVQWESFU5LUaAAAECBAgQIECAAAECBAgQiCkgRIrZV1URIECAAAECBAgQIECAAAECBKoKCJGqclqMAAECBAgQIECAAAECBAgQIBBTQIgUs6+qIkCAAAECBAgQIECAAAECBAhUFRAiVeW0GAECBAgQIECAAAECBAgQIEAgpoAQKWZfVUWAAAECBAgQIECAAAECBAgQqCogRKrKaTECBAgQIECAAAECBAgQIECAQEwBIVLMvqqKAAECBAgQIECAAAECBAgQIFBVQIhUldNiBAgQIECAAAECBAgQIECAAIGYAkKkmH1VFQECBAgQIECAAAECBAgQIECgqoAQqSqnxQgQIECAAAECBAgQIECAAAECMQWESDH7qioCBAgQIECAAAECBAgQIECAQFUBIVJVTosRIECAAAECBAgQIECAAAECBGIKCJFi9lVVBAgQIECAAAECBAgQIECAAIGqAkKkqpwWI0CAAAECBAgQIECAAAECBAjEFBAixeyrqggQIECAAAECBAgQIECAAAECVQWESFU5LUaAAAECBAgQIECAAAECBAgQiCkgRIrZV1URIECAAAECBAgQIECAAAECBKoKCJGqclqMAAECBAgQIECAAAECBAgQIBBTQIgUs6+qIkCAAAECBAgQIECAAAECBAhUFRAiVeW0GAECBAgQIECAAAECBAgQIEAgpoAQKWZfVUWAAAECBAgQIECAAAECBAgQqCogRKrKaTECBAgQIECAAAECBAgQIECAQEwBIVLMvqqKAAECBAgQIECAAAECBAgQIFBVQIhUldNiBAgQIECAAAECBAgQIECAAIGYAkKkmH1VFQECBAgQIECAAAECBAgQIECgqoAQqSqnxQgQIECAAAECBAgQIECAAAECMQWESDH7qioCBAgQIECAAAECBAgQIECAQFUBIVJVTosRIECAAAECBAgQIECAAAECBGIKCJFi9lVVBAgQIECAAAECBAgQIECAAIGqAkKkqpwWI0CAAAECBAgQIECAAAECBAjEFBAixeyrqggQIECAAAECBAgQIECAAAECVQWESFU5LUaAAAECBAgQIECAAAECBAgQiCkgRIrZV1URIECAAAECBAgQIECAAAECBKoKCJGqclqMAAECBAgQIECAAAECBAgQIBBTQIgUs6+qIkCAAAECBAgQIECAAAECBAhUFRAiVeW0GAECBAgQIECAAAECBAgQIEAgpoAQKWZfVUWAAAECBAgQIECAAAECBAgQqCogRKrKaTECBAgQIECAAAECBAgQIECAQEwBIVLMvqqKAAECBAgQIECAAAECBAgQIFBVQIhUldNiBAgQIECAAAECBAgQIECAAIGYAkKkmH1VFQECBAgQIECAAAECBAgQIECgqoAQqSqnxQgQIECAAAECBAgQIECAAAECMQWESDH7qioCBAgQIECAAAECBAgQIECAQFUBIVJVTosRIECAAAECBAgQIECAAAECBGIKCJFi9lVVBAgQIECAAAECBAgQIECAAIGqAkKkqpwWI0CAAAECBAgQIECAAAECBAjEFBAixeyrqggQIECAAAECBAgQIECAAAECVQWESFU5LUaAAAECBAgQIECAAAECBAgQiCkgRIrZV1URIECAAAECBAgQIECAAAECBKoKCJGqclqMAAECBAgQIECAAAECBAgQIBBTQIgUs6+qIkCAAAECBAgQIECAAAECBAhUFRAiVeW0GAECBAgQIECAAAECBAgQIEAgpoAQKWZfVUWAAAECBAgQIECAAAECBAgQqCogRKrKaTECBAgQIECAAAECBAgQIECAQEwBIVLMvqqKAAECBAgQIECAAAECBAgQIFBVQIhUldNiBAgQIECAAAECBAgQIECAAIGYAkKkmH1VFQECBAgQIECAAAECBAgQIECgqoAQqSqnxQgQIECAAAECBAgQIECAAAECMQWESDH7qioCBAgQIECAAAECBAgQIECAQFUBIVJVTosRIECAAAECBAgQIECAAAECBGIKCJFi9lVVBAgQIECAAAECBAgQIECAAIGqAkKkqpwWI0CAAAECBAgQIECAAAECBAjEFBAixeyrqggQIECAAAECBAgQIECAAAECVQWESFU5LUaAAAECBAgQIECAAAECBAgQiCkgRIrZV1URIECAAAECBAgQIECAAAECBKoKCJGqclqMAAECBAgQIECAAAECBAgQIBBTQIgUs6+qIkCAAAECBAgQIECAAAECBAhUFRAiVeW0GAECBAgQIECAAAECBAgQIEAgpoAQKWZfVUWAAAECBAgQIECAAAECBAgQqCogRKrKaTECBAgQIECAAAECBAgQIECAQEwBIVLMvqqKAAECBAgQIECAAAECBAgQIFBVQIhUldNiBAgQIECAAAECBAgQIECAAIGYAkKkmH1VFQECBAgQIECAAAECBAgQIECgqoAQqSqnxQgQIECAAAECBAgQIECAAAECMQWESDH7qioCBAgQIECAAAECBAgQIECAQFUBIVJVTosRIECAAAECBAgQIECAAAECBGIKCJFi9lVVBAgQIECAAAECBAgQIECAAIGqAkKkqpwWI0CAAAECBAgQIECAAAECBAjEFBAixeyrqggQIECAAAECBAgQIECAAAECVQWESFU5LUaAAAECBAgQIECAAAECBAgQiCkgRIrZV1URIECAAAECBAgQIECAAAECBKoKCJGqclqMAAECBAgQIECAAAECBAgQIBBTQIgUs6+qIkCAAAECBAgQIECAAAECBAhUFRAiVeW0GAECBAgQIECAAAECBAgQIEAgpoAQKWZfVUWAAAECBAgQIECAAAECBAgQqCogRKrKaTECBAgQIECAAAECBAgQIECAQEwBIVLMvqqKAAECBAgQIECAAAECBAgQIFBVQIhUldNiBAgQIECAAAECBAgQIECAAIGYAkKkmH1VFQECBAgQIECAAAECBAgQIECgqoAQqSqnxQgQIECAAAECBAgQIECAAAECMQWESDH7qioCBAgQIECAAAECBAgQIECAQFUBIVJVTosRIECAAAECBAgQIECAAAECBGIKCJFi9lVVBAgQIECAAAECBAgQIECAAIGqAkKkqpwWI0CAAAECBAgQIECAAAECBAjEFBAixeyrqggQIECAAAECBAgQIECAAAECVQWESFU5LUaAAAECBAgQIECAAAECBAgQiCkgRIrZV1URIECAAAECBAgQIECAAAECBKoKCJGqclqMAAECBAgQIECAAAECBAgQIBBTQIgUs6+qIkCAAAECBAgQIECAAAECBAhUFRAiVeW0GAECBAgQIECAAAECBAgQIEAgpoAQKWZfVUWAAAECBAgQIECAAAECBAgQqCogRKrKaTECBAgQIECAAAECBAgQIECAQEwBIVLMvqqKAAECBAgQIECAAAECBAgQIFBVQIhUldNiBAgQIECAAAECBAgQIECAAIGYAkKkmH1VFQECBAgQIECAAAECBAgQIECgqoAQqSqnxQgQIECAAAECBAgQIECAAAECMQWESDH7qioCBAgQIECAAAECBAgQIECAQFUBIVJVTosRIECAAAECBAgQIECAAAECBGIKnLRKWf3jj61yu3sJECCw8QLdlVdtfA0KIFBbwH8+qC1qPQIECBAgQIDAegQW/b9nVgqRyhOPlf6//nM9lViVAAECjQt0/+f/Nr5D2yMwjED/H/9eypM/HebhnkqAAAECBAgQIDCXQPfNfytlwf+nuHG2uWhdRIAAgW0C551fui/s3XbQRwIESt8LkHwNCBAgQIAAAQJBBYRIQRurLAIE1ivQ7d233gdYncCGCvQHb9vQnds2AQIECBAgQIDALAEh0iwh5wkQIDBOYO/+cUcdI5BeoD90e3oDAAQIECBAgACBqAJCpKidVRcBAusTOP+C0n3uC+tb38oENlXgzTdL+dmTm7p7+yZAgAABAgQIEJghIESaAeQ0AQIEtgsYZdsu4jOBtwT8FpJvAgECBAgQIEAgtoAQKXZ/VUeAwDoE9hhlWwerNTdfoD9olG3zu6gCAgQIECBAgMBkASHSZBtnCBAgsFPgggtL99nP7TzuCIHsAm+8UcpTP8uuoH4CBAgQIECAQGgBIVLo9iqOAIHaAp0/qF2b1HpBBIyyBWmkMggQIECAAAECUwSESFNwnCJAgMAOAaNsO0gcILAlYJTN94AAAQIECBAgEF9AiBS/xyokQKCWwEUXl+7Kq2qtZh0CcQT+8udSnn4qTj0qIUCAAAECBAgQGCsgRBrL4iABAgR2CnR+C2kniiMERgJ+C8nXgAABAgQIECCQQ0CIlKPPqiRAoIbA3n01VrEGgXACQqRwLVUQAQIECBAgQGCsgBBpLIuDBAgQ2CZwyaWlu+LKbQd9JECgvP56Kc88DYIAAQIECBAgQCCBgBApQZOVSIDA6gJG2VY3tEJMgf7gbTELUxUBAgQIECBAgMAOASHSDhIHCBAgMEbAKNsYFIcIjP4e0qHbMRAgQIAAAQIECCQRECIlabQyCRBYQeDSy0p3+RUrLOBWAkEFXnutlF89E7Q4ZREgQIAAAQIECGwXECJtF/GZAAEC2wS6vfu3HfGRAIEtAb+F5HtAgAABAgQIEMglIETK1W/VEiCwjIBRtmXU3JNAwN9DStBkJRIgQIAAAQIE3iUgRHoXhh8JECCwQ+Cyz5TuM5fvOOwAgfQCr75SyrO/Ts8AgAABAgQIECCQSUCIlKnbaiVAYGEBo2wLk7khiUB/0B/UTtJqZRIgQIAAAQIE3hYQIr1N4QcCBAjsFOiMsu1EcYTASECI5GtAgAABAgQIEMgnIETK13MVEyAwr8DWGNtonM0/AgS2Cfzx5VKee3bbQR8JECBAgAABAgSiCwiRondYfQQILC1glG1pOjcGF/BbSMEbrDwCBAgQIECAwAQBIdIEGIcJECDQ7dkHgQCBMQL9IX8PaQyLQwQIECBAgACB8AJCpPAtViABAksJXH5FKZ+6bKlb3UQgtMBLL5Xy2+dCl6g4AgQIECBAgACB8QJCpPEujhIgkFzAH9RO/gVQ/kSB/uBtE885QYAAAQIECBAgEFtAiBS7v6ojQGBJgW7P/iXvdBuB2AL9tw7GLlB1BAgQIECAAAECEwWESBNpnCBAIK3AFVeWcsmlactXOIGJAi++aJRtIo4TBAgQIECAAIH4AkKk+D1WIQECCwr4g9oLgrk8jYA/qJ2m1QolQIAAAQIECIwVECKNZXGQAIHMAt1eo2yZ+6/2yQL9tw5NPukMAQIECBAgQIBAeAEhUvgWK5AAgYUErvxsKRddvNAtLiaQQuCF35fyO29lS9FrRRIgQIAAAQIEJggIkSbAOEyAQE4Bo2w5+67q2QL9wdtnX+QKAgQIECBAgACB0AJCpNDtVRwBAosKGGVbVMz1WQT6u+7IUqo6CRAgQIAAAQIEJggIkSbAOEyAQEKBqz5fygUXJixcyQRmCDz/u9Eo229nXOQ0AQIECBAgQIBAdAEhUvQOq48AgbkFur375r7WhQQyCRhly9RttRIgQIAAAQIEJgsIkSbbOEOAQDIBo2zJGq7cuQX6u++c+1oXEiBAgAABAgQIxBUQIsXtrcoIEFhE4HN7Sjn/k4vc4VoCOQR+O3oj2/NG2XI0W5UECBAgQIAAgekCQqTpPs4SIJBEwChbkkYrc2GB/pC3si2M5gYCBAgQIECAQFABIVLQxiqLAIHFBIyyLebl6jwC/T135SlWpQQIECBAgAABAlMFhEhTeZwkQCCFwBf2lnLeJ1KUqkgCCwk895vRKNvozWz+ESBAgAABAgQIEBgJCJF8DQgQSC/gt5DSfwUATBDwVrYJMA4TIECAAAECBJIKCJGSNl7ZBAi8I9Dt2f/OBz8RIPC2QH/v3W//7AcCBAgQIECAAAECQiTfAQIEcgvsHQVI556b20D1BMYJPPtro2zjXBwjQIAAAQIECCQWECIlbr7SCRAoxSibbwGB8QJG2ca7OEqAAAECBAgQyCwgRMrcfbUTIFC6PfsoECAwRqD/zj1jjjpEgAABAgQIECCQWUCIlLn7aieQXWD/1aWcfU52BfUT2Cnwq2dK+f3zO487QoAAAQIECBAgkFpAiJS6/YonkFvAKFvu/qt+skB/6PbJJ50hQIAAAQIECBBIKyBEStt6hRMgYJTNd4DAeIH+vnvHn3CUAAECBAgQIEAgtYAQKXX7FU8gscDV15by8bMSAyidwASBXz5tlG0CjcMECBAgQIAAgewCQqTs3wD1E0gq0O3Zn7RyZROYLmCUbbqPswQIECBAgACBzAJCpMzdVzuBxALdXm9lS9x+pU8R6O+/b8pZpwgQIECAAAECBDILCJEyd1/tBLIKXHN9KR87M2v16iYwWeDpX5TygreyTQZyhgABAgQIECCQW0CIlLv/qieQUsBb2VK2XdFzCPQHb5vjKpcQIECAAAECBAhkFRAiZe28ugkkFjDKlrj5Sp8q0D94/9TzThIgQIAAAQIECOQWECLl7r/qCaQT6K67sZSPfDRd3QomMFPgqZ+PRtl+P/MyFxAgQIAAAQIECOQVECLl7b3KCeQU2OutbDkbr+pZAt7KNkvIeQIECBAgQIAAASGS7wABAqkEjLKlardiFxDoH3pggatdSoAAAQIECBAgkFFAiJSx62omkFSgu+HmUj58RtLqlU1gisDPnjTKNoXHKQIECBAgQIAAgbcEhEi+CQQI5BHYuy9PrSolsICAUbYFsFxKgAABAgQIEEgsIERK3HylE8gm0O3x95Cy9Vy98wn0Dz8434WuIkCAAAECBAgQSC0gRErdfsUTyCPQ3fTlUk4/PU/BKiUwr8CTPy3lxRfmvdp1BAgQIECAAAECiQWESImbr3QCqQSMsqVqt2LnF+gP3j7/xa4kQIAAAQIECBBILSBESt1+xRPII2CULU+vVbqYQH/44cVucDUBAgQIECBAgEBaASFS2tYrnEAege5LXy3ltNPyFKxSAvMK/PQnRtnmtXIdAQIECBAgQIBAESL5EhAgEF9gj7eyxW+yCpcR6A/etsxt7iFAgAABAgQIEEgqIERK2nhlE8gk0O31VrZM/Vbr/AL9kUfmv9iVBAgQIECAAAEC6QWESOm/AgAIxBbovvL1Uk49NXaRqiOwjMCPf1TKH15c5k73ECBAgAABAgQIJBUQIiVtvLIJpBEwypam1QpdTKA/5K1si4m5mgABAgQIECBAQIjkO0CAQGgBo2yh26u4FQT6o4dXuNutBAgQIECAAAECGQWESBm7rmYCSQS6r95SyimnJKlWmQQWEPjRD42yLcDlUgIECBAgQIAAgbcEhEi+CQQIxBXwB7Xj9lZlKwkYZVuJz80ECBAgQIAAgbQCQqS0rVc4gfgCRtni91iFywn0R48ud6O7CBAgQIAAAQIEUgsIkVK3X/EE4gp0X/9GKSefHLdAlRFYVuCHT5TykreyLcvnPgIECBAgQIBAZgEhUubuq51AZAGjbJG7q7YVBPo7Dq5wt1sJECBAgAABAgQyCwiRMndf7QTCCnTFKFvY5ipsRYH+2JEVV3A7AQIECBAgQIBAVgEhUtbOq5tAYIHuwK2lnHRS4AqVRmA5gf6Jx0ajbH9Y7mZ3ESBAgAABAgQIpBcQIqX/CgAgEFDAKFvApiqpisCdd1RZxiIECBAgQIAAAQI5BYRIOfuuagJxBd7zntEo27649amMwAoCRtlWwHMrAQIECBAgQIBAESL5EhAgEEqgu+VfS3nPe0PVpBgCNQT6x75vlK0GpDUIECBAgAABAokFhEiJm690AiEF9u0PWZaiCKwscJdRtpUNLUCAAAECBAgQSC4gREr+BVA+gVAC7z2pdHuMsoXqqWKqCRhlq0ZpIQIECBAgQIBAWgEhUtrWK5xAPIHjb2XruniFqYjAigL99x8t5eWXVlzF7QQIECBAgAABAtkFhEjZvwHqJxBJYO8XI1WjFgL1BO6+s95aViJAgAABAgQIEEgrIERK23qFEwgm8L73jUbZ9gYrSjkE6ggYZavjaBUCBAgQIECAQHYBIVL2b4D6CQQROP5WtiC1KINATYH+0WNG2WqCWosAAQIECBAgkFhAiJS4+UonEEpgn1G2UP1UTD2Be+6qt5aVCBAgQIAAAQIEUgsIkVK3X/EEggic/P7Sff4LQYpRBoG6AkbZ6npajQABAgQIECCQWUCIlLn7aicQROD4W9mC1KIMAjUFjgdIf3y55pLWIkCAAAECBAgQSCwgRErcfKUTiCLQ7bs6SinqIFBX4N576q5nNQIECBAgQIAAgdQCQqTU7Vc8gQACp5xSymc/F6AQJRCoL2CUrb6pFQkQIECAAAECmQWESJm7r3YCAQS8lS1AE5WwFoH+6OFSjLKtxdaiBAgQIECAAIGsAkKkrJ1XN4EgAt1+b2UL0kpl1Bb4jlG22qTWI0CAAAECBAhkFxAiZf8GqJ/AJgt84NRSrvzsJldg7wTWJtAfO7q2tS1MgAABAgQIECCQU0CIlLPvqiYQQsBb2UK0URFrEOgPP2yUbQ2uliRAgAABAgQIZBcQImX/BqifwAYLdPu9lW2D22fr6xS47951rm5tAgQIECBAgACBpAJCpKSNVzaBjRc49YOlXHHlxpehAALrEPBWtnWoWpMAAQIECBAgQECI5DtAgMBGCnQH/nUj923TBNYt0D/8YCmv/HHdj7E+AQIECBAgQIBAQgEhUsKmK5lABIHui0bZIvRRDWsQeOC+NSxqSQIECBAgQIAAAQKlCJF8CwgQ2DyB0z5UyuVXbN6+7ZjALggYZdsFZI8gQIAAAQIECCQVECIlbbyyCWyyQHfLrZu8fXsnsDaB/sH7jbKtTdfCBAgQIECAAAECQiTfAQIENk6gu/qajduzDRPYFYGtEMk/AgQIECBAgAABAmsSECKtCdayBAisSeBDp5fymcvXtLhlCWy2gFG2ze6f3RMgQIAAAQIEWhcQIrXeIfsjQOAEAW9lO4HDBwJvC/Rbf1D71Vfe/uwHAgQIECBAgAABArUFhEi1Ra1HgMBaBbovGmVbK7DFN1fgoQc2d+92ToAAAQIECBAgsBECQqSNaJNNEiBwXODDZ5Ty6c/AIEBgjIBRtjEoDhEgQIAAAQIECFQVECJV5bQYAQLrFPBWtnXqWnuTBfr77jXKtskNtHcCBAgQIECAwIYICJE2pFG2SYBAKd3V12IgQGCcwCMPjjvqGAECBAgQIECAAIGqAkKkqpwWI0BgbQJnfKSUT122tuUtTGCTBYyybXL37J0AAQIECBAgsDkCQqTN6ZWdEkgt0B24NXX9iicwSaC/957RKNurk047ToAAAQIECBAgQKCagBCpGqWFCBBYp0B39XXrXN7aBDZX4PDDm7t3OydAgAABAgQIENgoASHSb32LtgAAOtZJREFURrXLZgkkFfjox0q55NKkxSubwHQBo2zTfZwlQIAAAQIECBCoJyBEqmdpJQIE1iTgrWxrgrXsxgv0376rlNeMsm18IxVAgAABAgQIENgQASHShjTKNglkFuiuMcqWuf9qnyJw5JEpJ50iQIAAAQIECBAgUFdAiFTX02oECNQW+NiZpVx0ce1VrUcghEB/7GiIOhRBgAABAgQIECCwGQJCpM3ok10SSCvgrWxpW6/wGQL93XcaZZth5DQBAgQIECBAgEBdASFSXU+rESBQWaC75vrKK1qOQBCBo4eDFKIMAgQIECBAgACBTREQIm1Kp+yTQEaBM88q5YILM1auZgIzBbyVbSaRCwgQIECAAAECBCoLCJEqg1qOAIF6AkbZ6llaKZZAf9e3SvnTa7GKUg0BAgQIECBAgEDzAkKk5ltkgwTyCnTXeitb3u6rfJqA30KapuMcAQIECBAgQIDAugSESOuStS4BAqsJnHV2KedfsNoa7iYQVeDYkaiVqYsAAQIECBAgQKBhASFSw82xNQKZBbpbbs1cvtoJTBTo77rDKNtEHScIECBAgAABAgTWKSBEWqeutQkQWFqgu9Zb2ZbGc2NsgaN+Cyl2g1VHgAABAgQIEGhXQIjUbm/sjEBegbPPLeUT5+etX+UEpgj4e0hTcJwiQIAAAQIECBBYq4AQaa28FidAYBkBb2VbRs09GQT6O0ejbK//KUOpaiRAgAABAgQIEGhQQIjUYFNsiUB2AaNs2b8B6p8k4LeQJsk4ToAAAQIECBAgsBsCQqTdUPYMAgTmFzj3vFK2/ss/AgROFOj7UryV7UQTnwgQIECAAAECBHZVQIi0q9weRoDALAFvZZsl5HxWgeNvZTPKlrX96iZAgAABAgQINCEgRGqiDTZBgMA/BLrrbvjHj/4nAQLvFvBbSO/W8DMBAgQIECBAgMAAAkKkAdA9kgCBCQLnjd7IdvY5E046TCCxwJtvFn8PKXH/lU6AAAECBAgQaERAiNRII2yDAIFSvJXNt4DAeIH+7jtHb2V7ffxJRwkQIECAAAECBAjskoAQaZegPYYAgdkCRtlmG7kip4DfQsrZd1UTIECAAAECBFoTECK11hH7IZBV4PxPlvLxs7JWr24CkwXeeMNb2SbrOEOAAAECBAgQILCLAkKkXcT2KAIEJgt4K9tkG2dyC/TfvquUPxtly/0tUD0BAgQIECBAoA0BIVIbfbALAukFuutvTG8AgMA4AaNs41QcI0CAAAECBAgQGEJAiDSEumcSIHCiwCcvLOVjZ554zCcCBEr5y59Ho2xHSRAgQIAAAQIECBBoQkCI1EQbbIJAbgFvZcvdf9VPFujvvcco22QeZwgQIECAAAECBHZZQIi0y+AeR4DATgGjbDtNHCFwXODoERAECBAgQIAAAQIEmhEQIjXTChshkFTgwotK+chHkxavbAJTBF5/vfh7SFN8nCJAgAABAgQIENh1ASHSrpN7IAEC7xbwVrZ3a/iZwDsC/Xe+/dbfRHrnkJ8IECBAgAABAgQIDCogRBqU38MJEOiuvwkCAQJjBPwW0hgUhwgQIECAAAECBAYVECINyu/hBJILXHRJKWeckRxB+QTGCLz22uitbP4e0hgZhwgQIECAAAECBAYUECINiO/RBLILGGXL/g1Q/ySB/v57jbJNwnGcAAECBAgQIEBgMAEh0mD0HkyAQHeDUTbfAgLjBIyyjVNxjAABAgQIECBAYGgBIdLQHfB8AlkFLr60lNNPz1q9uglMFnj1FaNsk3WcIUCAAAECBAgQGFBAiDQgvkcTyCzQHbg1c/lqJzBRoL//vtEo218mnneCAAECBAgQIECAwFACQqSh5D2XQHKB7oabkwson8B4AaNs410cJUCAAAECBAgQGF5AiDR8D+yAQD6BSy8r5bTT8tWtYgKzBP74slG2WUbOEyBAgAABAgQIDCYgRBqM3oMJ5BXwVra8vVf5dIH+wftLecMo23QlZwkQIECAAAECBIYSECINJe+5BBILdDfenLh6pROYLGCUbbKNMwQIECBAgAABAsMLCJGG74EdEMgl8KlPl3LqqblqVi2BeQReesko2zxOriFAgAABAgQIEBhMQIg0GL0HE8gp4K1sOfuu6tkC/UMPjEbZ3ph9oSsIECBAgAABAgQIDCQgRBoI3mMJZBXobvxS1tLVTWCqgFG2qTxOEiBAgAABAgQINCAgRGqgCbZAII3Ap/+plFNOSVOuQgnMLfDii0bZ5sZyIQECBAgQIECAwFACQqSh5D2XQEIBb2VL2HQlzyXQP/JgKX81yjYXlosIECBAgAABAgQGExAiDUbvwQTyCXQ33ZyvaBUTmEOgP3Z0jqtcQoAAAQIECBAgQGBYASHSsP6eTiCPwGcuL+Xk9+epV6UE5hV44fdG2ea1ch0BAgQIECBAgMCgAkKkQfk9nEAeAW9ly9NrlS4m0B9+2CjbYmSuJkCAAAECBAgQGEhAiDQQvMcSyCbQ3eStbNl6rt75BLyVbT4nVxEgQIAAAQIECAwvIEQavgd2QCC+wOVXlHLS++LXqUICiwo8/zujbIuauZ4AAQIECBAgQGAwASHSYPQeTCCPgLey5em1ShcT6I8cHo2y/XWxm1xNgAABAgQIECBAYCABIdJA8B5LIJOAUbZM3VbrIgJG2RbRci0BAgQIECBAgMDQAkKkoTvg+QSiC/zzv5Ty3vdGr1J9BBYX+O1zRtkWV3MHAQIECBAgQIDAgAJCpAHxPZpABgFvZcvQZTUuI3D8t5DeNMq2jJ17CBAgQIAAAQIEhhEQIg3j7qkE0gh0N305Ta0KJbCIgFG2RbRcS4AAAQIECBAg0IKAEKmFLtgDgagCV1xVStdFrU5dBJYXeM4o2/J47iRAgAABAgQIEBhKQIg0lLznEkggYJQtQZOVuJTAW6Nsby51r5sIECBAgAABAgQIDCUgRBpK3nMJJBDwVrYETVbiUgJG2ZZicxMBAgQIECBAgMDAAkKkgRvg8QTCClz52bClKYzASgLP/cZb2VYCdDMBAgQIECBAgMBQAkKkoeQ9l0Bwge6WW4NXqDwCywkc/y2kvxllW07PXQQIECBAgAABAkMKCJGG1PdsAoEFuhtvDlyd0ggsL2CUbXk7dxIgQIAAAQIECAwrIEQa1t/TCcQUuOrzMetSFYFVBYyyrSrofgIECBAgQIAAgQEFhEgD4ns0gagC3soWtbPqWlXgrVG2v626jPsJECBAgAABAgQIDCIgRBqE3UMJxBborr8xdoGqI7CkQH/0yJJ3uo0AAQIECBAgQIDA8AJCpOF7YAcEYgl87gux6lENgVoCv3nWW9lqWVqHAAECBAgQIEBgEAEh0iDsHkogroC3ssXtrcpWEzg+ytYbZVtN0d0ECBAgQIAAAQJDCgiRhtT3bAIBBbrrbghYlZIIrC7QHzu6+iJWIECAAAECBAgQIDCggBBpQHyPJhBO4PN7w5WkIAJVBIyyVWG0CAECBAgQIECAwLACQqRh/T2dQCgBb2UL1U7FVBQwylYR01IECBAgQIAAAQKDCQiRBqP3YALxBLprrotXlIoIVBA4HiJVWMcSBAgQIECAAAECBIYUECINqe/ZBCIJ7NkXqRq1EKgn8OyvvZWtnqaVCBAgQIAAAQIEBhQQIg2I79EEIgl4K1ukbqqlpsDxP6jd9zWXtBYBAgQIECBAgACBQQSESIOweyiBeALd1dfGK0pFBCoIGGWrgGgJAgQIECBAgACBJgSESE20wSYIbLjA3i9ueAG2T2BNAkbZ1gRrWQIECBAgQIAAgSEEhEhDqHsmgWAC3soWrKHKqSbw1m8hGWWrBmohAgQIECBAgACBQQWESIPyeziBGALd/qtjFKIKApUFjLJVBrUcAQIECBAgQIDAoAJdP/q37A76xx9b9lb3ESAQSKC78qpA1SiFQCWB0Shb//zzlRazDAECBAgQIECAAIH6Aov+33IrhUj1t29FAgQIECBAgAABAgQIECBAgACBFgWMs7XYFXsiQIAAAQIECBAgQIAAAQIECDQmIERqrCG2Q4AAAQIECBAgQIAAAQIECBBoUUCI1GJX7IkAAQIECBAgQIAAAQIECBAg0JiAEKmxhtgOAQIECBAgQIAAAQIECBAgQKBFASFSi12xJwIECBAgQIAAAQIECBAgQIBAYwJCpMYaYjsECBAgQIAAAQIECBAgQIAAgRYFhEgtdsWeCBAgQIAAAQIECBAgQIAAAQKNCQiRGmuI7RAgQIAAAQIECBAgQIAAAQIEWhQQIrXYFXsiQIAAAQIECBAgQIAAAQIECDQmIERqrCG2Q4AAAQIECBAgQIAAAQIECBBoUUCI1GJX7IkAAQIECBAgQIAAAQIECBAg0JiAEKmxhtgOAQIECBAgQIAAAQIECBAgQKBFASFSi12xJwIECBAgQIAAAQIECBAgQIBAYwJCpMYaYjsECBAgQIAAAQIECBAgQIAAgRYFhEgtdsWeCBAgQIAAAQIECBAgQIAAAQKNCQiRGmuI7RAgQIAAAQIECBAgQIAAAQIEWhQQIrXYFXsiQIAAAQIECBAgQIAAAQIECDQmIERqrCG2Q4AAAQIECBAgQIAAAQIECBBoUUCI1GJX7IkAAQIECBAgQIAAAQIECBAg0JiAEKmxhtgOAQIECBAgQIAAAQIECBAgQKBFASFSi12xJwIECBAgQIAAAQIECBAgQIBAYwJCpMYaYjsECBAgQIAAAQIECBAgQIAAgRYFhEgtdsWeCBAgQIAAAQIECBAgQIAAAQKNCQiRGmuI7RAgQIAAAQIECBAgQIAAAQIEWhQQIrXYFXsiQIAAAQIECBAgQIAAAQIECDQmIERqrCG2Q4AAAQIECBAgQIAAAQIECBBoUUCI1GJX7IkAAQIECBAgQIAAAQIECBAg0JiAEKmxhtgOAQIECBAgQIAAAQIECBAgQKBFASFSi12xJwIECBAgQIAAAQIECBAgQIBAYwJCpMYaYjsECBAgQIAAAQIECBAgQIAAgRYFhEgtdsWeCBAgQIAAAQIECBAgQIAAAQKNCQiRGmuI7RAgQIAAAQIECBAgQIAAAQIEWhQQIrXYFXsiQIAAAQIECBAgQIAAAQIECDQmIERqrCG2Q4AAAQIECBAgQIAAAQIECBBoUUCI1GJX7IkAAQIECBAgQIAAAQIECBAg0JiAEKmxhtgOAQIECBAgQIAAAQIECBAgQKBFASFSi12xJwIECBAgQIAAAQIECBAgQIBAYwJCpMYaYjsECBAgQIAAAQIECBAgQIAAgRYFhEgtdsWeCBAgQIAAAQIECBAgQIAAAQKNCQiRGmuI7RAgQIAAAQIECBAgQIAAAQIEWhQQIrXYFXsiQIAAAQIECBAgQIAAAQIECDQmIERqrCG2Q4AAAQIECBAgQIAAAQIECBBoUUCI1GJX7IkAAQIECBAgQIAAAQIECBAg0JiAEKmxhtgOAQIECBAgQIAAAQIECBAgQKBFASFSi12xJwIECBAgQIAAAQIECBAgQIBAYwJCpMYaYjsECBAgQIAAAQIECBAgQIAAgRYFhEgtdsWeCBAgQIAAAQIECBAgQIAAAQKNCQiRGmuI7RAgQIAAAQIECBAgQIAAAQIEWhQQIrXYFXsiQIAAAQIECBAgQIAAAQIECDQmIERqrCG2Q4AAAQIECBAgQIAAAQIECBBoUUCI1GJX7IkAAQIECBAgQIAAAQIECBAg0JiAEKmxhtgOAQIECBAgQIAAAQIECBAgQKBFASFSi12xJwIECBAgQIAAAQIECBAgQIBAYwJCpMYaYjsECBAgQIAAAQIECBAgQIAAgRYFhEgtdsWeCBAgQIAAAQIECBAgQIAAAQKNCQiRGmuI7RAgQIAAAQIECBAgQIAAAQIEWhQQIrXYFXsiQIAAAQIECBAgQIAAAQIECDQmIERqrCG2Q4AAAQIECBAgQIAAAQIECBBoUUCI1GJX7IkAAQIECBAgQIAAAQIECBAg0JiAEKmxhtgOAQIECBAgQIAAAQIECBAgQKBFASFSi12xJwIECBAgQIAAAQIECBAgQIBAYwJCpMYaYjsECBAgQIAAAQIECBAgQIAAgRYFhEgtdsWeCBAgQIAAAQIECBAgQIAAAQKNCQiRGmuI7RAgQIAAAQIECBAgQIAAAQIEWhQQIrXYFXsiQIAAAQIECBAgQIAAAQIECDQmIERqrCG2Q4AAAQIECBAgQIAAAQIECBBoUUCI1GJX7IkAAQIECBAgQIAAAQIECBAg0JiAEKmxhtgOAQIECBAgQIAAAQIECBAgQKBFASFSi12xJwIECBAgQIAAAQIECBAgQIBAYwJCpMYaYjsECBAgQIAAAQIECBAgQIAAgRYFhEgtdsWeCBAgQIAAAQIECBAgQIAAAQKNCQiRGmuI7RAgQIAAAQIECBAgQIAAAQIEWhQQIrXYFXsiQIAAAQIECBAgQIAAAQIECDQmIERqrCG2Q4AAAQIECBAgQIAAAQIECBBoUUCI1GJX7IkAAQIECBAgQIAAAQIECBAg0JiAEKmxhtgOAQIECBAgQIAAAQIECBAgQKBFASFSi12xJwIECBAgQIAAAQIECBAgQIBAYwJCpMYaYjsECBAgQIAAAQIECBAgQIAAgRYFhEgtdsWeCBAgQIAAAQIECBAgQIAAAQKNCQiRGmuI7RAgQIAAAQIECBAgQIAAAQIEWhQQIrXYFXsiQIAAAQIECBAgQIAAAQIECDQmIERqrCG2Q4AAAQIECBAgQIAAAQIECBBoUUCI1GJX7IkAAQIECBAgQIAAAQIECBAg0JiAEKmxhtgOAQIECBAgQIAAAQIECBAgQKBFASFSi12xJwIECBAgQIAAAQIECBAgQIBAYwJCpMYaYjsECBAgQIAAAQIECBAgQIAAgRYFhEgtdsWeCBAgQIAAAQIECBAgQIAAAQKNCQiRGmuI7RAgQIAAAQIECBAgQIAAAQIEWhQQIrXYFXsiQIAAAQIECBAgQIAAAQIECDQmIERqrCG2Q4AAAQIECBAgQIAAAQIECBBoUUCI1GJX7IkAAQIECBAgQIAAAQIECBAg0JiAEKmxhtgOAQIECBAgQIAAAQIECBAgQKBFASFSi12xJwIECBAgQIAAAQIECBAgQIBAYwJCpMYaYjsECBAgQIAAAQIECBAgQIAAgRYFhEgtdsWeCBAgQIAAAQIECBAgQIAAAQKNCQiRGmuI7RAgQIAAAQIECBAgQIAAAQIEWhQQIrXYFXsiQIAAAQIECBAgQIAAAQIECDQmIERqrCG2Q4AAAQIECBAgQIAAAQIECBBoUUCI1GJX7IkAAQIECBAgQIAAAQIECBAg0JiAEKmxhtgOAQIECBAgQIAAAQIECBAgQKBFASFSi12xJwIECBAgQIAAAQIECBAgQIBAYwJCpMYaYjsECBAgQIAAAQIECBAgQIAAgRYFhEgtdsWeCBAgQIAAAQIECBAgQIAAAQKNCQiRGmuI7RAgQIAAAQIECBAgQIAAAQIEWhQQIrXYFXsiQIAAAQIECBAgQIAAAQIECDQmIERqrCG2Q4AAAQIECBAgQIAAAQIECBBoUUCI1GJX7IkAAQIECBAgQIAAAQIECBAg0JiAEKmxhtgOAQIECBAgQIAAAQIECBAgQKBFASFSi12xJwIECBAgQIAAAQIECBAgQIBAYwJCpMYaYjsECBAgQIAAAQIECBAgQIAAgRYFhEgtdsWeCBAgQIAAAQIECBAgQIAAAQKNCQiRGmuI7RAgQIAAAQIECBAgQIAAAQIEWhQQIrXYFXsiQIAAAQIECBAgQIAAAQIECDQmIERqrCG2Q4AAAQIECBAgQIAAAQIECBBoUUCI1GJX7IkAAQIECBAgQIAAAQIECBAg0JiAEKmxhtgOAQIECBAgQIAAAQIECBAgQKBFASFSi12xJwIECBAgQIAAAQIECBAgQIBAYwJCpMYaYjsECBAgQIAAAQIECBAgQIAAgRYFhEgtdsWeCBAgQIAAAQIECBAgQIAAAQKNCQiRGmuI7RAgQIAAAQIECBAgQIAAAQIEWhQQIrXYFXsiQIAAAQIECBAgQIAAAQIECDQmIERqrCG2Q4AAAQIECBAgQIAAAQIECBBoUUCI1GJX7IkAAQIECBAgQIAAAQIECBAg0JiAEKmxhtgOAQIECBAgQIAAAQIECBAgQKBFASFSi12xJwIECBAgQIAAAQIECBAgQIBAYwJCpMYaYjsECBAgQIAAAQIECBAgQIAAgRYFhEgtdsWeCBAgQIAAAQIECBAgQIAAAQKNCQiRGmuI7RAgQIAAAQIECBAgQIAAAQIEWhQQIrXYFXsiQIAAAQIECBAgQIAAAQIECDQmIERqrCG2Q4AAAQIECBAgQIAAAQIECBBoUUCI1GJX7IkAAQIECBAgQIAAAQIECBAg0JiAEKmxhtgOAQIECBAgQIAAAQIECBAgQKBFASFSi12xJwIECBAgQIAAAQIECBAgQIBAYwJCpMYaYjsECBAgQIAAAQIECBAgQIAAgRYFhEgtdsWeCBAgQIAAAQIECBAgQIAAAQKNCQiRGmuI7RAgQIAAAQIECBAgQIAAAQIEWhQQIrXYFXsiQIAAAQIECBAgQIAAAQIECDQmIERqrCG2Q4AAAQIECBAgQIAAAQIECBBoUUCI1GJX7IkAAQIECBAgQIAAAQIECBAg0JiAEKmxhtgOAQIECBAgQIAAAQIECBAgQKBFASFSi12xJwIECBAgQIAAAQIECBAgQIBAYwJCpMYaYjsECBAgQIAAAQIECBAgQIAAgRYFhEgtdsWeCBAgQIAAAQIECBAgQIAAAQKNCQiRGmuI7RAgQIAAAQIECBAgQIAAAQIEWhQQIrXYFXsiQIAAAQIECBAgQIAAAQIECDQmIERqrCG2Q4AAAQIECBAgQIAAAQIECBBoUUCI1GJX7IkAAQIECBAgQIAAAQIECBAg0JiAEKmxhtgOAQIECBAgQIAAAQIECBAgQKBFASFSi12xJwIECBAgQIAAAQIECBAgQIBAYwJCpMYaYjsECBAgQIAAAQIECBAgQIAAgRYFhEgtdsWeCBAgQIAAAQIECBAgQIAAAQKNCQiRGmuI7RAgQIAAAQIECBAgQIAAAQIEWhQQIrXYFXsiQIAAAQIECBAgQIAAAQIECDQmIERqrCG2Q4AAAQIECBAgQIAAAQIECBBoUUCI1GJX7IkAAQIECBAgQIAAAQIECBD4/+3d6ZIc1ZUA4JtmMfu+76vZ126EQEiAAUujeQJHzDzS/JlXmInwEwyWEBISQkJLN56BsMMOO+wZ2wPGFgOYHYNzSi0Jqauyu6sys6rv8vGHzluZN8/5TjocnKhTSSAyAU2kyAoiHAIECBAgQIAAAQIECBAgQIBAjAKaSDFWRUwECBAgQIAAAQIECBAgQIAAgcgENJEiK4hwCBAgQIAAAQIECBAgQIAAAQIxCmgixVgVMREgQIAAAQIECBAgQIAAAQIEIhPQRIqsIMIhQIAAAQIECBAgQIAAAQIECMQooIkUY1XERIAAAQIECBAgQIAAAQIECBCITEATKbKCCIcAAQIECBAgQIAAAQIECBAgEKOAJlKMVRETAQIECBAgQIAAAQIECBAgQCAyAU2kyAoiHAIECBAgQIAAAQIECBAgQIBAjAKaSDFWRUwECBAgQIAAAQIECBAgQIAAgcgENJEiK4hwCBAgQIAAAQIECBAgQIAAAQIxCpzdJaj6J//e5XLXEihGoPrxPxWTq0QJjCvg/0PGlXIeAQIECBAgQIAAgekITPrfqp2aSMdTqH/yb9PJxK4EMhH43r/8ayaZSINAvwL1jpdD+PCDfje1GwECBAgQIECAAAECYwlUP/7nsc478yTjbGdq+JtA3wL33BfC3ff0vav9CKQv8MExDaT0qygDAgQIECBAgACBwgQ0kQoruHRnK1DNPzHbG7obgUQElr6FlEiswiRAgAABAgQIECBA4ISAJpIngcAUBaq5DVPc3dYE0hWodw5G2fxDgAABAgQIECBAgEBSAppISZVLsEkJ3PdACHfdnVTIgiUwE4Fjfwnhow9ncis3IUCAAAECBAgQIECgPwFNpP4s7URgmUA1Z5RtGYgDAicFjLJ5FAgQIECAAAECBAikKaCJlGbdRJ2AQDVvlC2BMglxHQSMsq0DulsSIECAAAECBAgQ6EFAE6kHRFsQGBG4/8EQ7rhzZNkCgeIF/vx+CB9/VDwDAAIECBAgQIAAAQIpCmgipVg1MUcv4FtI0ZdIgOsk4FtI6wTvtgQIECBAgAABAgR6ENBE6gHRFgSGBfwe0rCIYwInBPwekieBAAECBAgQIECAQLoCmkjp1k7ksQo8+HAIt98Ra3TiIrB+Au//KYRP/rp+93dnAgQIECBAgAABAgQ6CWgideJzMYFRAd9CGjWxQuC4gG8heQ4IECBAgAABAgQIpC2giZR2/UQfoYDfQ4qwKEKKQsDvIUVRBkEQIECAAAECBAgQaC2gidSazoUEGgQefjSEW29r+MASgcIF3ns3hE8/KRxB+gQIECBAgAABAgTSFtBESrt+oo9MwChbZAURTjQCvoUUTSkEQoAAAQIECBAgQKC1gCZSazoXEhgVMMo2amKFwHGB+pWfgiBAgAABAgQIECBAIHEBTaTECyj8iAQeeSyEm2+JKCChEIhE4N3/HYyyfRpJMMIgQIAAAQIECBAgQKCtgCZSWznXERgS8C2kIRCHBE4KeCubR4EAAQIECBAgQIBAHgKaSHnUURYRCPg9pAiKIIQoBepdO6KMS1AECBAgQIAAAQIECEwmoIk0mZezCTQLPDYXwk03N39mlUDJAn/8QwifGWUr+RGQOwECBAgQIECAQD4Cmkj51FIm6yhQzW1Yx7u7NYF4BbyVLd7aiIwAAQIECBAgQIDApAKaSJOKOZ9Ag0A1/0TDqiUCBOpXX4FAgAABAgQIECBAgEAmAppImRRSGuso8PiggXTDjesYgFsTiFTgD783yhZpaYRFgAABAgQIECBAoI2AJlIbNdcQOEPAt5DOwPAngTMEjLKdgeFPAgQIECBAgAABAhkIaCJlUEQprK9ANe/3kNa3Au4eq0C9e1esoYmLAAECBAgQIECAAIEWAppILdBcQuA7geMNpOuu/+7QHwQInBT4/f8YZfMwECBAgAABAgQIEMhMQBMps4JKZ7YCvoU0W293S0eg3vEf6QQrUgIECBAgQIAAAQIExhLQRBqLyUkEmgWqOW9la5axWrpA/dru0gnkT4AAAQIECBAgQCA7AU2k7EoqoZkJbNgYwrXXzex2bkQgGYH//p1RtmSKJVACBAgQIECAAAEC4wtoIo1v5UwCywSqOT+ovQzEAYGTAt7K5lEgQIAAAQIECBAgkKeAJlKedZXVDASqeaNsM2B2iwQF6r1G2RIsm5AJECBAgAABAgQIrCmgibQmkRMINAg8+XQIV1/T8IElAoUL/O63g1G2zwpHkD4BAgQIECBAgACBPAU0kfKsq6ymLOBbSFMGtn2yAvWOl5ONXeAECBAgQIAAAQIECKwuoIm0uo9PCTQKVPN+D6kRxmLxAvW+PcUbACBAgAABAgQIECCQq4AmUq6Vldf0BJ7aFMKVV01vfzsTSFXgt78J4XOjbKmWT9wECBAgQIAAAQIE1hLQRFpLyOcEhgR8C2kIxCGBkwJG2TwKBAgQIECAAAECBPIW0ETKu76ym4JANeetbFNgtWUGAvXrezPIQgoECBAgQIAAAQIECKwkoIm0kox1Ak0CmzaHcMWVTZ9YI1C2wG9+bZSt7CdA9gQIECBAgAABAgUIaCIVUGQp9idQzflB7f407ZSTQL3TW9lyqqdcCBAgQIAAAQIECDQJaCI1qVgjsIJANW+UbQUay4UL1Pv3FS4gfQIECBAgQIAAAQL5C2gi5V9jGfYkUD3zbAiXXd7TbrYhkJHAr39llC2jckqFAAECBAgQIECAwEoCmkgryVgnMCzgW0jDIo4JLAl4K5sHgQABAgQIECBAgEAZAppIZdRZlj0I+D2kHhBtkaVAfWB/lnlJigABAgQIECBAgACB5QKaSMs9HBFoFKi2PB/CpZc2fmaRQNECv/qlUbaiHwDJEyBAgAABAgQIlCSgiVRSteXaXmDOD2q3x3NlzgLeypZzdeVGgAABAgQIECBAYLmAJtJyD0cEGgWq+Q2N6xYJlC5QHzTKVvozIH8CBAgQIECAAIFyBDSRyqm1TFsKVM/+MISLL255tcsI5CtQ//IXg1G2z/NNUGYECBAgQIAAAQIECCwT0ERaxuGAQIOAbyE1oFgiMBDY8TIGAgQIECBAgAABAgQKEtBEKqjYUm0hUFWhmvd7SC3kXFKAQP3mgQKylCIBAgQIECBAgAABAqcENJFOSfg3gQaB6rkXQrjwooZPLBEoXOAXPw/hC6NshT8F0idAgAABAgQIEChMQBOpsIJLd0IB30KaEMzppQh4K1splZYnAQIECBAgQIAAgdMCmkinLfxFYLnA974XqrkNy9ccESCwJFAfOkiCAAECBAgQIECAAIHCBDSRCiu4dMcXqJ5/MYQLLhj/AmcSKEXg5+8YZSul1vIkQIAAAQIECBAgcIaAJtIZGP4ksExgzg9qL/NwQOCkQO2tbJ4FAgQIECBAgAABAkUKaCIVWXZJrylw1tmDt7IZZVvTyQlFCtRHDhWZt6QJECBAgAABAgQIlC6giVT6EyD/RoHq+cFb2c47r/EziwRKFqjfedsoW8kPgNwJECBAgAABAgSKFtBEKrr8kl9RwLeQVqTxQeECO18uHED6BAgQIECAAAECBMoV0EQqt/YyX0ng7HMGo2x+D2klHutlC9RHD5cNIHsCBAgQIECAAAECBQtoIhVcfKk3C1Q/HLyV7dzvN39olUDBAvXb/2mUreD6S50AAQIECBAgQICAJpJngMCwgG8hDYs4JnBCwCibJ4EAAQIECBAgQIBA0QKaSEWXX/IjAuecG6o5b2UbcbFAYCBQHz3CgQABAgQIECBAgACBggU0kQouvtRHBaoXXgrhnHNGP7BCoHCB+r9+FsKXXxSuIH0CBAgQIECAAAECZQtoIpVdf9kPC8z5Qe1hEscElgR2eCubJ4EAAQIECBAgQIBA6QKaSKU/AfI/LTD4Me1q3ijbaRB/ETgtUC8ePX3gLwIECBAgQIAAAQIEihTQRCqy7JJuElgaZTvrrKaPrBEoWqD+2aJRtqKfAMkTIECAAAECBAgQOCGgieRJIHBKwLeQTkn4N4FlAvUrO5YdOyBAgAABAgQIECBAoEwBTaQy6y7rYYHzzhu8lc3vIQ2zOCawJGCUzYNAgAABAgQIECBAgMBAQBPJY0BgIFC98KPB/xr8z8HDQGBYoH5rwSjbMIpjAgQIECBAgAABAoUK+K/mQgsv7SGBOT+oPSTikMCSQL3LKJtHgQABAgQIECBAgACBEwKaSJ4EAudfMHgrm1E2DwKBRoHFwTeR/EOAAAECBAgQIECAAIGBgCaSx6B4gerFwSibfwgQGBGoF44aZRtRsUCAAAECBAgQIECgXAFNpHJrL/NTAn5Q+5SEfxNYLrB75/JjRwQIECBAgAABAgQIFC2giVR0+SUfLrgwVI/PgyBAoEGgNsrWoGKJAAECBAgQIECAQLkCmkjl1l7mA4Hqxa0cCBBoEKiPHjbK1uBiiQABAgQIECBAgEDJAppIJVdf7iH4QW1PAYFGgXr3rsZ1iwQIECBAgAABAgQIlCugiVRu7WV+4UWhevRxDgQINAksDn5U2z8ECBAgQIAAAQIECBA4Q0AT6QwMf5YlUL1klK2sist2XIH6yKEQvvpy3NOdR4AAAQIECBAgQIBAIQKaSIUUWpoNAnMbGhYtESBQ73kVAgECBAgQIECAAAECBEYENJFGSCwUIXDRxaF65NEiUpUkgYkFjLJNTOYCAgQIECBAgAABAiUIaCKVUGU5jghUL20bWbNAgEAI9aGDRtk8CAQIECBAgAABAgQINApoIjWyWMxewFvZsi+xBFsK7N3T8kKXESBAgAABAgQIECCQu4AmUu4Vlt+owMWXhOqhR0bXrRAgEGqjbJ4CAgQIECBAgAABAgRWENBEWgHGcr4C1Y/+Id/kZEagg0D95gGjbB38XEqAAAECBAgQIEAgdwFNpNwrLL9RAaNsoyZWCAwE6n1G2TwIBAgQIECAAAECBAisLKCJtLKNT3IUuOSyUD3wUI6ZyYlAd4HFhe572IEAAQIECBAgQIAAgWwFNJGyLa3EmgSqrd7K1uRijUB9YL9RNo8BAQIECBAgQIAAAQKrCmgircrjw9wEqrkNuaUkHwK9CNT79/ayj00IECBAgAABAgQIEMhXQBMp39rKbFjgsstDuP+B4VXHBAgcF/BWNs8BAQIECBAgQIAAAQJrCGgirQHk43wEvJUtn1rKpF+B+o3XB6NsX/W7qd0IECBAgAABAgQIEMhOQBMpu5JKaCWBylvZVqKxXrhAvX9f4QLSJ0CAAAECBAgQIEBgHAFNpHGUnJO+wOVXhHDv/ennIQMC0xAwyjYNVXsSIECAAAECBAgQyE5AEym7kkqoSaDaur1p2RqB4gXq1/eG8LVRtuIfBAAECBAgQIAAAQIExhDQRBoDySkZCMw9kUESUiDQv0B9YH//m9qRAAECBAgQIECAAIEsBTSRsiyrpJYJXHFlqO65d9mSAwIETgoYZfMoECBAgAABAgQIECAwpoAm0phQTktXwChburUT+XQF6n2vGWWbLrHdCRAgQIAAAQIECGQloImUVTkl0yRQzW9oWrZGoHiB+uAbxRsAIECAAAECBAgQIEBgfAFNpPGtnJmiwJVXhXD3D1KMXMwEpi9glG36xu5AgAABAgQIECBAICMBTaSMiimVUQGjbKMmVggcF6j37jbK5lEgQIAAAQIECBAgQGAiAU2kibicnJpA9cSTqYUsXgIzEajfPDCT+7gJAQIECBAgQIAAAQL5CGgi5VNLmQwLXHV1CHfeNbzqmACB4wKLCxwIECBAgAABAgQIECAwkYAm0kRcTk5JoNq2PaVwxUpgZgL1nleNss1M240IECBAgAABAgQI5COgiZRPLWUyJFDNG2UbInFIYEmgPnyQBAECBAgQIECAAAECBCYW0ESamMwFSQhcfW0Id9yZRKiCJDBzAW9lmzm5GxIgQIAAAQIECBDIQUATKYcqymFEwCjbCIkFAksC9e5XBqNsX9MgQIAAAQIECBAgQIDAxAKaSBOTuSAFAW9lS6FKYlwPgfrwofW4rXsSIECAAAECBAgQIJCBgCZSBkWUwpDANdeFcNvtQ4sOCRBYEjDK5kEgQIAAAQIECBAgQKClgCZSSziXxStglC3e2ohsfQXqXTtD+JtRtvWtgrsTIECAAAECBAgQSFdAEynd2ol8BYFqg7eyrUBjuXCB+ujhwgWkT4AAAQIECBAgQIBAFwFNpC56ro1P4LrrQ7jltvjiEhGBGASMssVQBTEQIECAAAECBAgQSFZAEynZ0gm8SaDaur1p2RqB4gXqV35qlK34pwAAAQIECBAgQIAAgW4Cmkjd/FwdmUC1YWNkEQmHQBwC9cKROAIRBQECBAgQIECAAAECyQpoIiVbOoGPCFx/Qwg33zKybIEAgYHA4gIGAgQIECBAgAABAgQIdBLQROrE5+KYBIyyxVQNscQkUO982ShbTAURCwECBAgQIECAAIFEBTSREi2csEcFqiefGl20QoBAqP2gtqeAAAECBAgQIECAAIEeBDSRekC0RQQCN9wYwo03RRCIEAhEJlDXRtkiK4lwCBAgQIAAAQIECKQqoImUauXEvUzAKNsyDgcEvhPwVrbvKPxBgAABAgQIECBAgEBHAU2kjoAuj0Og2vh0HIGIgkBkAkbZIiuIcAgQIECAAAECBAgkLKCJlHDxhH5S4MabQzj+Zjb/ECCwXODbbwejbEeXrzkiQIAAAQIECBAgQIBASwFNpJZwLotHoNq2PZ5gREIgIoF6187BW9n+FlFEQiFAgAABAgQIECBAIGUBTaSUqyf2JQFvZfMgEGgWMMrW7GKVAAECBAgQIECAAIF2AppI7dxcFYvATbeEcN31sUQjDgLxCHzzjVG2eKohEgIECBAgQIAAAQJZCGgiZVHGcpMwylZu7WW+ukD96mCU7RujbKsr+ZQAAQIECBAgQIAAgUkENJEm0XJudALeyhZdSQQUiUC9uBBJJMIgQIAAAQIECBAgQCAXAU2kXCpZYh433xrCNdeWmLmcCawu8PXXRtlWF/IpAQIECBAgQIAAAQItBDSRWqC5JA4Bo2xx1EEU8QnUe3YZZYuvLCIiQIAAAQIECBAgkLyAJlLyJSw3gWrjpnKTlzmBVQSMsq2C4yMCBAgQIECAAAECBFoLaCK1pnPhugrcelsIV1+9riG4OYEoBb76yihblIURFAECBAgQIECAAIH0BTSR0q9hkRlUW7cXmbekCawlUL/2qlG2tZB8ToAAAQIECBAgQIBAKwFNpFZsLlpvgeopo2zrXQP3j1OgXjwaZ2CiIkCAAAECBAgQIEAgeQFNpORLWGACt90ewpVXFZi4lAmsIfDlF0bZ1iDyMQECBAgQIECAAAEC7QU0kdrbuXKdBIyyrRO820YvUL+2ZzDK9k30cQqQAAECBAgQIECAAIE0BTSR0qxb0VFXTz9TdP6SJ7CSgFG2lWSsEyBAgAABAgQIECDQh4AmUh+K9pidwO13hnD5FbO7nzsRSEXg889DeMvvIaVSLnESIECAAAECBAgQSFFAEynFqhUcs1G2gosv9VUF6n2vGWVbVciHBAgQIECAAAECBAh0FdBE6iro+pkKGGWbKbebJSRglC2hYgmVAAECBAgQIECAQKICmkiJFq7IsO+4K4TLLisydUkTWFXgs0+9lW1VIB8SIECAAAECBAgQINCHgCZSH4r2mIlAtW37TO7jJgRSE6hf3xfCt97KllrdxEuAAAECBAgQIEAgNQFNpNQqVnC8RtkKLr7UVxUwyrYqjw8JECBAgAABAgQIEOhJQBOpJ0jbTFngzrtDuOTSKd/E9gQSFPjkE6NsCZZNyAQIECBAgAABAgRSFNBESrFqBcZslK3Aokt5LIH6DaNsY0E5iQABAgQIECBAgACBzgKaSJ0JbTALgWrT5lncxj0IJCdglC25kgmYAAECBAgQIECAQLICmkjJlq6gwO/6QQgXXVxQwlIlMKbAXz8ejLItjHmy0wgQIECAAAECBAgQINBNQBOpm5+rZyBglG0GyG6RpEB9YL+3siVZOUETIECAAAECBAgQSFNAEynNuhUVdbVpS1H5SpbAuAJG2caVch4BAgQIECBAgAABAn0IaCL1oWiP6QncfU8IF144vf3tTCBVgY8/8la2VGsnbgIECBAgQIAAAQKJCmgiJVq4UsI2ylZKpeU5qUB98I3BKNu3k17mfAIECBAgQIAAAQIECLQW0ERqTefCWQhUzzw7i9u4B4HkBIyyJVcyARMgQIAAAQIECBBIXkATKfkSZpzAPfeFcP75GScoNQItBT780ChbSzqXESBAgAABAgQIECDQXkATqb2dK6csUG3dPuU72J5AmgL1mweMsqVZOlETIECAAAECBAgQSFpAEynp8uUdfLXZW9nyrrDs2goYZWsr5zoCBAgQIECAAAECBLoIaCJ10XPt9ATuvT+E7583vf3tTCBVgf/7wChbqrUTNwECBAgQIECAAIHEBTSREi9gruEbZcu1svLqKlAfOhjC372Vrauj6wkQIECAAAECBAgQmFxAE2lyM1fMQKDa7K1sM2B2iwQF6sWFBKMWMgECBAgQIECAAAECOQhoIuVQxdxyuO+BEM49N7es5EOgu8CxY0bZuivagQABAgQIECBAgACBlgKaSC3hXDY9AaNs07O1c9oC9ZE3jbKlXULREyBAgAABAgQIEEhaQBMp6fLlGXy15bk8E5MVgY4C3srWEdDlBAgQIECAAAECBAh0EtBE6sTn4t4F7n8whLPP7n1bGxJIXuAvfx6Msvk9pOTrKAECBAgQIECAAAECCQtoIiVcvBxDr7ZtzzEtORHoLFAfPWyUrbOiDQgQIECAAAECBAgQ6CKgidRFz7W9C1Sbn+t9TxsSyEHAKFsOVZQDAQIECBAgQIAAgbQFNJHSrl9e0T/wUAhnnZVXTrIh0IfA++97K1sfjvYgQIAAAQIECBAgQKCTgCZSJz4X9ylglK1PTXvlJFAvHBmMsv09p5TkQoAAAQIECBAgQIBAggKaSAkWLdeQqy3P55qavAh0EjDK1onPxQQIECBAgAABAgQI9CSgidQTpG06Cjz4cAhV1XETlxPIUOBP74Xw1tEME5MSAQIECBAgQIAAAQKpCWgipVaxTOOttv1jpplJi0A3gXpxwShbN0JXEyBAgAABAgQIECDQk4AmUk+QtukmUG15rtsGriaQqYBRtkwLKy0CBAgQIECAAAECCQpoIiVYtOxCfujR7FKSEIFeBI6Psi0aZevF0iYECBAgQIAAAQIECHQW0ETqTGiDrgLeytZV0PW5Cix9C6n2VrZc6ysvAgQIECBAgAABAqkJaCKlVrEM4602P5thVlIi0F1g6feQum9jBwIECBAgQIAAAQIECPQioInUC6NNWgs88ljrS11IIGsBo2xZl1dyBAgQIECAAAECBFIU0ERKsWoZxVxt3Z5RNlIh0J+AUbb+LO1EgAABAgQIECBAgEA/AppI/TjapaVA9cyWlle6jEDeAt7Klnd9ZUeAAAECBAgQIEAgRQFNpBSrlkvMjz6eSybyINCvgFG2fj3tRoAAAQIECBAgQIBALwKaSL0w2qSNgFG2NmquKUHgxChbXUKqciRAgAABAgQIECBAICEBTaSEipVbqNWmzbmlJB8CvQgYZeuF0SYECBAgQIAAAQIECPQsoInUM6jtxhR4bG7ME51GoDCB994NYfFoYUlLlwABAgQIECBAgACBFAQ0kVKoUoYxGmXLsKhS6kWgXlwIoTbK1gumTQgQIECAAAECBAgQ6FVAE6lXTpuNK1A9/cy4pzqPQFECRtmKKrdkCRAgQIAAAQIECCQloImUVLkyCfbx+UwSkQaBngWOj7K9ZZStZ1XbESBAgAABAgQIECDQk4AmUk+QthlfoNq2ffyTnUmgIAGjbAUVW6oECBAgQIAAAQIEEhTQREqwaKmHXG3clHoK4icwFQGjbFNhtSkBAgQIECBAgAABAj0JaCL1BGmbMQXmNox5otMIFCbgrWyFFVy6BAgQIECAAAECBNIT0ERKr2ZJR2yULenyCX6KAie+heStbFMktjUBAgQIECBAgAABAh0FNJE6Arp8MoHqyacmu8DZBAoRMMpWSKGlSYAAAQIECBAgQCBhAU2khIuXXOjzTyYXsoAJzERgaZRtYSa3chMCBAgQIECAAAECBAi0FdBEaivnuokFjLJNTOaCQgSMshVSaGkSIECAAAECBAgQSFxAEynxAqYUfrVhY0rhipXAzASMss2M2o0IECBAgAABAgQIEOggUNWDf9peX7/zdttLXVegQPXQwwVmLWUCawgMRtnqY8fWOMnHBAgQIECAAAECBAgQ6F9g0v9O79RE6j98OxIgQIAAAQIECBAgQIAAAQIECMQoYJwtxqqIiQABAgQIECBAgAABAgQIECAQmYAmUmQFEQ4BAgQIECBAgAABAgQIECBAIEYBTaQYqyImAgQIECBAgAABAgQIECBAgEBkAppIkRVEOAQIECBAgAABAgQIECBAgACBGAU0kWKsipgIECBAgAABAgQIECBAgAABApEJaCJFVhDhECBAgAABAgQIECBAgAABAgRiFNBEirEqYiJAgAABAgQIECBAgAABAgQIRCagiRRZQYRDgAABAgQIECBAgAABAgQIEIhRQBMpxqqIiQABAgQIECBAgAABAgQIECAQmYAmUmQFEQ4BAgQIECBAgAABAgQIECBAIEYBTaQYqyImAgQIECBAgAABAgQIECBAgEBkAppIkRVEOAQIECBAgAABAgQIECBAgACBGAU0kWKsipgIECBAgAABAgQIECBAgAABApEJaCJFVhDhECBAgAABAgQIECBAgAABAgRiFNBEirEqYiJAgAABAgQIECBAgAABAgQIRCbw/16t9BZsQyE8AAAAAElFTkSuQmCC;" vertex="1" parent="1">
                    <mxGeometry x="250" y="570" width="50.23" height="40" as="geometry"/>
                </mxCell>
            </root>
        </mxGraphModel>
    </diagram>
</mxfile>